<?xml version="1.0" encoding="UTF-8"?>
<svg id="Layer_2" data-name="Layer 2" xmlns="http://www.w3.org/2000/svg" viewBox="0 0 341.88 239.7">
  <path d="M241.04,215.15s-1.11,7.29-6.18,7.76c-4.44,1.03-29.78,2.06-35.96,0-.63,6.97-2.85,11.09-12.36,12.36-9.5,1.27-31.21,1.74-32.63,0-3.01,2.53-4.44,4.44-4.44,4.44h-2.53s2.85-6.81,2.85-6.81c0,0-3.64-1.27-5.39,2.22s-2.53.79-2.53.79l2.85-5.39s-4.59.48-5.23,3.17-1.9-.95-1.9-.95c0,0-1.11-8.71,23.76-17.58.95-7.6,2.06-8.55,1.58-12.51s-14.73-35.33-22.02-35.64c-2.06,10.61-9.98,30.57-27.88,43.88-1.58,4.91-2.69,11.56-4.12,12.2s-5.54,3.96-7.29,3.8-17.9-.95-19.8.63-4.12,4.46-4.12,4.46l-.95-5.25-7.29.48-3.01,3.33-1.43-1.11v-4.12s-3.64.32-5.23,3.33-1.9-.32-1.9-.32c0,0,1.58-4.59,1.58-5.07,0-.48-3.49.95-3.8,3.17s-2.06,0-2.06,0c0,0,1.11-10.46,22.34-16.32,0,0,5.7-5.39,5.39-9.82s-3.33-14.73-2.06-38.49c-18.69,4.59-17.27,8.24-21.23,7.76s-17.58-.16-18.69,0-11.56,6.97-13.47,7.76-7.6,1.58-8.4.32-1.11-1.9-1.11-1.9l-6.65-.48-9.19-7.13s-1.27-3.8,0-4.75,11.09-22.81,11.41-27.56c-1.9-2.53-10.46-16.79,3.17-38.97,0-3.17-5.7-10.93-6.02-12.36s-.16-10.14,5.07-10.3c4.59,1.43,8.08,6.02,12.04,5.86,4.44-2.22,24.08-22.81,43.09-31.21,8.08-9.19,12.36-19.17,22.02-28.04,9.66-8.87,22.97-10.77,33.58-9.35s17.9,6.18,26.27,5.61c10.79-.73,42.79-13.69,47.86-14.8,5.07-1.11,21.39-4.91,43.88.95,22.5,5.86,59.09,35.17,71.92,58.61,12.83,23.45,15.84,57.82,10.14,86.49-.32,21.7,14.42,35.8,15.68,39.29s1.9,12.67,0,16.95-7.76,20.44-20.91,26.14c-13.15,5.7-29.15-9.03-21.07-13.94,8.08-4.91,2.53-3.8,1.11-7.13s-40.08-23.6-39.45-42.14c0,0-17.74,15.05-19.33,47.68" style="fill: #b5b7a6;"/>
</svg>