<?xml version="1.0" encoding="UTF-8"?>
<svg id="Layer_1" data-name="Layer 1" xmlns="http://www.w3.org/2000/svg" viewBox="0 0 49.55 34.74">
  <path d="M34.94,31.18s-.16,1.06-.9,1.13c-.64.15-4.32.3-5.21,0-.09,1.01-.41,1.61-1.79,1.79s-4.52.25-4.73,0c-.44.37-.64.64-.64.64h-.37l.41-.99s-.53-.18-.78.32-.37.11-.37.11l.41-.78s-.67.07-.76.46-.28-.14-.28-.14c0,0-.16-1.26,3.44-2.55.14-1.1.3-1.24.23-1.81s-2.14-5.12-3.19-5.17c-.3,1.54-1.45,4.43-4.04,6.36-.23.71-.39,1.68-.6,1.77s-.8.57-1.06.55-2.59-.14-2.87.09-.6.65-.6.65l-.14-.76-1.06.07-.44.48-.21-.16v-.6s-.53.05-.76.48-.28-.05-.28-.05c0,0,.23-.67.23-.73,0-.07-.51.14-.55.46s-.3,0-.3,0c0,0,.16-1.52,3.24-2.36,0,0,.83-.78.78-1.42s-.48-2.14-.3-5.58c-2.71.67-2.5,1.19-3.08,1.13s-2.55-.02-2.71,0-1.68,1.01-1.95,1.13-1.1.23-1.22.05-.16-.28-.16-.28l-.96-.07-1.33-1.03s-.18-.55,0-.69,1.61-3.31,1.65-4c-.28-.37-1.52-2.43.46-5.65,0-.46-.83-1.58-.87-1.79s-.02-1.47.73-1.49c.67.21,1.17.87,1.75.85.64-.32,3.49-3.31,6.25-4.52,1.17-1.33,1.79-2.78,3.19-4.06s3.33-1.56,4.87-1.35,2.59.9,3.81.81c1.56-.11,6.2-1.98,6.94-2.14s3.1-.71,6.36.14,8.56,5.1,10.42,8.5c1.86,3.4,2.3,8.38,1.47,12.54-.05,3.15,2.09,5.19,2.27,5.69s.28,1.84,0,2.46-1.13,2.96-3.03,3.79-4.22-1.31-3.05-2.02.37-.55.16-1.03-5.81-3.42-5.72-6.11c0,0-2.57,2.18-2.8,6.91" style="fill: #b5b7a6;"/>
</svg>