<?xml version="1.0" encoding="UTF-8"?>
<svg id="Layer_1" data-name="Layer 1" xmlns="http://www.w3.org/2000/svg" viewBox="0 0 201.96 68.03">
  <g>
    <path d="M49.5,49.11c.55-.63,1.23-1.16,2.02-1.58.79-.42,1.61-.7,2.45-.85.84-.14,1.68-.15,2.51-.01.83.13,1.57.42,2.21.86.64.44,1.14,1.05,1.5,1.83.36.78.52,1.75.46,2.89-.04.63-.12,1.2-.24,1.71s-.28.97-.47,1.39c-.19.42-.41.81-.66,1.18-.25.36-.52.72-.8,1.06-.54.63-1.19,1.14-1.95,1.53-.76.39-1.56.65-2.38.79-.82.13-1.63.13-2.44-.01-.8-.14-1.52-.44-2.15-.9-.63-.46-1.14-1.08-1.52-1.86-.38-.78-.55-1.74-.52-2.87.02-1.18.21-2.16.57-2.94.36-.77.83-1.51,1.4-2.22ZM53.08,59c.73,0,1.36-.28,1.89-.85.53-.56.96-1.28,1.28-2.14.32-.86.53-1.79.66-2.79.12-1,.13-1.93.03-2.79-.11-.86-.31-1.58-.62-2.15-.31-.57-.73-.86-1.26-.86-.73,0-1.35.29-1.88.86s-.95,1.29-1.28,2.16c-.33.87-.54,1.81-.66,2.81s-.12,1.93-.03,2.78c.1.85.3,1.56.6,2.13s.73.85,1.26.83Z" style="fill: #474d22;"/>
    <path d="M59.19,67.92c-.31.08-.73.12-1.26.12-.5,0-.99-.05-1.49-.16-.5-.1-.89-.26-1.18-.47.04-.13.06-.24.07-.32,0-.08.03-.19.07-.34.02-.1.05-.24.1-.44.05-.2.1-.42.14-.64.05-.23.1-.45.14-.66.05-.21.08-.37.1-.49.15-.04.28-.07.39-.09.1-.02.21-.03.3-.03s.2.01.3.04c.1.03.23.06.39.1-.11.61-.12,1.09-.01,1.45s.26.61.47.77c.21.16.44.25.69.27.25.02.45,0,.6-.06.23-.08.46-.27.69-.59.23-.32.45-.71.67-1.17.22-.47.42-1,.6-1.61.18-.6.34-1.24.47-1.91.53-2.45.99-4.79,1.36-7.02s.77-4.42,1.19-6.56h-2.09c0-.06,0-.15.03-.29.02-.13.08-.28.17-.43.48-.08.9-.14,1.26-.2.36-.06.73-.29,1.09-.69l.14-.23c.21-.75.44-1.5.69-2.26.25-.76.59-1.47,1.03-2.12.44-.65,1-1.21,1.69-1.69.69-.48,1.58-.82,2.67-1.03.67-.12,1.31-.12,1.93,0,.62.11,1.12.33,1.5.66-.1.44-.18.85-.24,1.23s-.15.76-.24,1.15c-.25.11-.48.16-.7.13-.22-.03-.4-.05-.53-.07.06-.55,0-1.02-.17-1.4-.17-.38-.41-.65-.72-.8-.31-.15-.65-.17-1.05-.06-.39.11-.78.38-1.16.8-.21.17-.4.45-.56.84-.16.39-.33.97-.5,1.73-.17.67-.3,1.28-.39,1.83-.09.55-.2,1.17-.33,1.83.61,0,1.27,0,1.96-.01.7,0,1.29-.01,1.76-.01-.02.19-.05.35-.09.49-.04.13-.12.33-.26.6h-3.61c-.1.44-.2.95-.3,1.52s-.21,1.14-.3,1.69c-.17.99-.35,2.06-.54,3.21-.19,1.15-.43,2.3-.7,3.45-.28,1.16-.6,2.28-.97,3.37-.37,1.09-.81,2.08-1.32,2.98-.51.9-1.08,1.66-1.73,2.29-.65.63-1.39,1.06-2.24,1.29Z" style="fill: #474d22;"/>
    <path d="M86.96,57.91c.02.08.04.17.06.29.02.11,0,.25-.03.4-.13.04-.31.1-.52.19-.21.09-.5.19-.87.3-.37.11-.85.24-1.42.39s-1.28.3-2.12.47c-.25.02-.43,0-.54-.04s-.19-.12-.23-.23c-.04-.1-.05-.23-.03-.39.02-.15.04-.32.06-.52l2.01-10.78-2.01.03c0-.25.09-.47.26-.66.38-.08.82-.26,1.32-.54.5-.29.98-.66,1.45-1.12.47-.46.91-1,1.32-1.62.41-.62.72-1.31.93-2.08.15-.04.38-.06.69-.06s.52.02.63.06c-.04.15-.1.42-.19.8-.09.38-.18.81-.27,1.29-.1.48-.2.96-.3,1.46s-.2.93-.27,1.29l3.44-.06c-.02.21-.06.39-.11.54-.06.15-.13.34-.23.57l-3.32.03c-.27,1.43-.55,2.89-.86,4.37-.31,1.48-.55,2.94-.75,4.37-.08.5-.06.85.06,1.05.11.2.28.32.49.36.21.04.44.03.69-.03.25-.06.48-.1.69-.14Z" style="fill: #474d22;"/>
    <path d="M95.02,48.37c.4-.38.83-.71,1.29-.99.46-.28.92-.49,1.39-.63.47-.14.94-.21,1.42-.21s.93.1,1.35.29c.36.17.64.43.82.77.18.34.29.74.33,1.19.04.45.03.92-.01,1.41-.05.49-.12.95-.21,1.39-.04.23-.1.59-.19,1.09-.09.5-.18,1.01-.27,1.53s-.18,1.02-.26,1.48c-.08.46-.12.75-.14.89-.02.15-.04.31-.06.47-.02.16-.02.31,0,.43.02.12.07.23.14.3.08.08.21.11.4.11.21.02.41.01.59-.01.18-.03.42-.06.7-.1.04.1.05.22.04.39,0,.16-.03.26-.07.3-.31.11-.69.25-1.16.4-.47.15-.95.3-1.45.44-.5.14-.98.27-1.45.39s-.85.17-1.13.17c-.4-.04-.56-.28-.49-.72.1-.42.22-1.02.39-1.79.16-.77.33-1.58.5-2.42.17-.84.33-1.65.49-2.42.15-.77.28-1.37.37-1.79.21-.9.27-1.52.19-1.88s-.27-.58-.56-.67c-.19-.06-.45-.05-.77.01-.33.07-.66.22-1.02.47-.35.25-.68.6-.97,1.06-.3.46-.51,1.06-.65,1.81l-1.6,7.45c-.25.17-.56.31-.93.42-.37.11-.75.19-1.13.24-.44.08-.9.13-1.38.17.21-.97.45-2.13.72-3.48.27-1.35.54-2.73.82-4.16.28-1.42.53-2.81.77-4.17.24-1.36.45-2.53.63-3.53.18-.99.32-1.74.4-2.24.09-.5.11-.58.07-.26.02-.15.04-.31.06-.47.02-.16.02-.31,0-.43-.02-.12-.07-.22-.14-.3-.08-.08-.21-.11-.4-.11-.21-.02-.41-.01-.59.01-.18.03-.42.06-.7.1-.04-.09-.05-.22-.04-.39,0-.16.03-.26.07-.3.31-.12.69-.25,1.16-.4.47-.15.95-.3,1.45-.44s.98-.27,1.45-.39c.47-.12.85-.17,1.13-.17.4.04.56.28.49.72-.15.67-.31,1.38-.47,2.14-.16.75-.32,1.52-.47,2.29-.15.77-.31,1.55-.46,2.32-.15.77-.3,1.51-.43,2.22Z" style="fill: #474d22;"/>
    <path d="M110.29,46.56c1.39-.1,2.46.07,3.2.49.73.42,1.11,1.03,1.13,1.83.02.96-.23,1.78-.75,2.46-.52.69-1.16,1.22-1.93,1.61s-1.6.62-2.48.7c-.88.09-1.66,0-2.35-.24-.08.34-.12.81-.14,1.39s.03,1.15.14,1.71c.11.55.32,1.04.62,1.46.3.42.72.64,1.28.66.76.04,1.51-.2,2.25-.72.74-.52,1.44-1.12,2.11-1.81.25.04.42.1.5.17.09.08.16.18.21.32-1.51,2.24-3.41,3.35-5.7,3.35-.76,0-1.46-.13-2.08-.39-.62-.26-1.15-.62-1.58-1.09-.43-.47-.75-1.03-.97-1.68s-.31-1.37-.27-2.15c.04-.94.22-1.86.56-2.78.33-.92.79-1.74,1.38-2.48.58-.74,1.28-1.36,2.11-1.86.82-.51,1.75-.83,2.78-.96ZM110.41,51.75c.15-.17.3-.38.43-.63.13-.25.25-.52.34-.82.1-.3.17-.6.23-.9.06-.3.09-.59.09-.86,0-.34-.08-.64-.23-.89-.15-.25-.4-.35-.75-.32-.63.13-1.23.65-1.81,1.55-.57.9-.99,2.06-1.26,3.5.23.15.48.23.76.24.28,0,.55-.03.83-.11.28-.09.53-.2.77-.33.24-.13.43-.28.59-.43Z" style="fill: #474d22;"/>
    <path d="M142.19,46.71c.04.75,0,1.59-.13,2.54-.12.95-.33,1.91-.62,2.88-.29.97-.66,1.93-1.12,2.88-.46.95-.99,1.78-1.6,2.51-.61.73-1.31,1.31-2.09,1.76-.78.45-1.63.67-2.55.67-.33,0-.64-.05-.96-.14s-.6-.23-.85-.4c-.25-.17-.45-.38-.62-.63s-.25-.53-.27-.83c-.54.69-1.16,1.19-1.86,1.5-.71.31-1.45.48-2.24.5-.54,0-1.03-.08-1.48-.23-.45-.15-.84-.37-1.16-.66-.33-.29-.57-.62-.75-1.02-.17-.39-.25-.83-.23-1.33.02-.65.08-1.24.17-1.78s.22-1.07.36-1.59c.14-.53.3-1.07.47-1.63.17-.56.34-1.2.52-1.91.1-.32.1-.53.03-.6s-.19-.11-.34-.11c-.21.04-.42.07-.63.1-.21.03-.54.08-.97.16-.1-.15-.14-.31-.14-.47v-.27c1.43-.55,2.54-.97,3.31-1.26.77-.29,1.34-.5,1.71-.63.44-.15.74-.15.9,0,.16.15.24.29.24.4,0,.19-.1.61-.3,1.26-.2.65-.43,1.4-.69,2.26-.26.86-.52,1.76-.77,2.71-.26.95-.44,1.82-.54,2.62-.11.8-.11,1.47-.01,2.01.09.54.36.81.8.83.65.04,1.27-.18,1.85-.64s1.11-1.07,1.58-1.81c.47-.74.86-1.55,1.19-2.45.32-.9.56-1.76.7-2.58.14-.82.18-1.56.1-2.21s-.28-1.1-.6-1.35c.23-.29.51-.52.85-.69.33-.17.65-.29.96-.34s.57-.05.79.01c.22.07.33.19.33.36.08.29.06.77-.04,1.46-.11.69-.24,1.47-.42,2.34-.17.87-.35,1.77-.54,2.71-.19.94-.32,1.79-.4,2.57-.08.77-.08,1.41,0,1.91.08.5.29.75.63.75.65,0,1.26-.19,1.83-.56.57-.37,1.08-.86,1.53-1.46.45-.6.84-1.3,1.16-2.09.32-.79.56-1.61.72-2.44s.21-1.66.17-2.49-.18-1.59-.43-2.28c.1-.06.2-.13.3-.21.11-.09.24-.17.42-.24s.39-.15.66-.21c.27-.07.63-.11,1.09-.13Z" style="fill: #474d22;"/>
    <path d="M144.77,49.11c.55-.63,1.23-1.16,2.02-1.58s1.61-.7,2.45-.85,1.68-.15,2.51-.01c.83.13,1.57.42,2.21.86s1.14,1.05,1.5,1.83c.36.78.52,1.75.46,2.89-.04.63-.12,1.2-.24,1.71s-.28.97-.47,1.39c-.19.42-.41.81-.66,1.18-.25.36-.52.72-.8,1.06-.54.63-1.18,1.14-1.95,1.53-.76.39-1.56.65-2.38.79-.82.13-1.63.13-2.44-.01-.8-.14-1.52-.44-2.15-.9-.63-.46-1.14-1.08-1.52-1.86-.38-.78-.55-1.74-.52-2.87.02-1.18.21-2.16.57-2.94.36-.77.83-1.51,1.4-2.22ZM148.35,59c.73,0,1.36-.28,1.89-.85s.96-1.28,1.28-2.14c.31-.86.53-1.79.66-2.79.12-1,.13-1.93.03-2.79-.11-.86-.31-1.58-.62-2.15s-.73-.86-1.26-.86c-.73,0-1.35.29-1.88.86s-.95,1.29-1.28,2.16-.54,1.81-.66,2.81-.12,1.93-.03,2.78c.09.85.3,1.56.6,2.13s.73.85,1.26.83Z" style="fill: #474d22;"/>
    <path d="M158.9,49.11c.55-.63,1.23-1.16,2.02-1.58s1.61-.7,2.45-.85,1.68-.15,2.51-.01c.83.13,1.57.42,2.21.86s1.14,1.05,1.5,1.83c.36.78.52,1.75.46,2.89-.04.63-.12,1.2-.24,1.71s-.28.97-.47,1.39c-.19.42-.41.81-.66,1.18-.25.36-.52.72-.8,1.06-.54.63-1.18,1.14-1.95,1.53-.76.39-1.56.65-2.38.79-.82.13-1.63.13-2.44-.01-.8-.14-1.52-.44-2.15-.9-.63-.46-1.14-1.08-1.52-1.86-.38-.78-.55-1.74-.52-2.87.02-1.18.21-2.16.57-2.94.36-.77.83-1.51,1.4-2.22ZM162.48,59c.73,0,1.36-.28,1.89-.85s.96-1.28,1.28-2.14c.31-.86.53-1.79.66-2.79.12-1,.13-1.93.03-2.79-.11-.86-.31-1.58-.62-2.15s-.73-.86-1.26-.86c-.73,0-1.35.29-1.88.86s-.95,1.29-1.28,2.16-.54,1.81-.66,2.81-.12,1.93-.03,2.78c.09.85.3,1.56.6,2.13s.73.85,1.26.83Z" style="fill: #474d22;"/>
    <path d="M178.65,59.35s.02-.15.06-.4c.04-.25.09-.53.14-.85.06-.32.12-.62.17-.92.06-.3.09-.5.11-.62-.17.33-.37.67-.6,1.03-.23.36-.49.71-.79,1.03-.3.33-.63.61-.99.85-.36.24-.77.39-1.23.44-.8.08-1.48.01-2.04-.19-.55-.2-1-.5-1.33-.9-.33-.4-.57-.88-.72-1.42-.14-.54-.22-1.13-.22-1.76,0-.97.18-1.99.54-3.04s.88-2.02,1.55-2.9c.67-.88,1.47-1.61,2.41-2.19s1.98-.89,3.12-.93c.57-.04.96,0,1.18.1.21.11.41.21.6.3.15-.75.28-1.35.39-1.82.11-.47.19-.86.26-1.19.07-.32.12-.61.17-.86.05-.25.09-.53.13-.83.02-.15.03-.31.04-.47,0-.16,0-.31-.03-.43-.03-.12-.09-.22-.19-.3-.1-.08-.24-.11-.43-.11-.21-.02-.41-.01-.59.01-.18.03-.42.06-.7.1-.04-.1-.05-.22-.04-.39,0-.16.03-.26.07-.3.31-.12.69-.25,1.16-.4.47-.15.95-.3,1.45-.44.5-.14.98-.27,1.45-.39.47-.12.85-.17,1.13-.17.4.04.56.28.49.72-.57,2.85-1.04,5.19-1.4,7.04s-.66,3.37-.89,4.59c-.23,1.21-.42,2.21-.57,3s-.3,1.54-.43,2.26c-.06.29-.07.52-.04.7.03.18.18.26.44.24.04-.02.21-.05.5-.1.3-.05.62-.15.99-.3.17.21.25.47.23.77-.78.4-1.57.78-2.36,1.15-.79.36-1.54.65-2.25.86-.38.13-.65.14-.79.03-.14-.11-.2-.32-.16-.6ZM175.44,58.31c.52.06.99-.08,1.43-.4.44-.32.84-.77,1.19-1.33s.66-1.21.93-1.94c.27-.73.49-1.45.67-2.16.18-.72.32-1.4.4-2.05s.13-1.18.13-1.6c0-.46-.14-.81-.42-1.05-.28-.24-.54-.35-.79-.33-.44.04-.89.33-1.36.87-.47.54-.9,1.21-1.3,1.99s-.75,1.63-1.06,2.55-.52,1.77-.63,2.57-.11,1.46,0,2.01.38.84.8.87Z" style="fill: #474d22;"/>
    <path d="M192.12,47.31c-.27,0-.54.06-.8.17-.27.11-.51.27-.72.47-.21.2-.38.43-.5.69s-.17.54-.13.85c.04.42.21.75.52,1s.67.46,1.1.64c.43.18.89.36,1.39.54.5.18.96.42,1.39.73s.79.7,1.08,1.18c.29.48.45,1.1.49,1.86,0,.73-.16,1.37-.49,1.92-.33.55-.76,1.02-1.32,1.39-.55.37-1.2.66-1.93.86-.74.2-1.51.31-2.34.33-.73.04-1.44-.06-2.15-.29-.71-.23-1.32-.5-1.83-.8l.6-3.64c.1-.02.21-.04.33-.06.12-.02.28,0,.47.06.02.5.06.98.12,1.46.06.48.18.9.37,1.26s.47.65.83.87.87.31,1.52.27c.34,0,.68-.07,1-.2.33-.13.62-.32.87-.54.26-.23.46-.51.62-.83.15-.32.21-.69.17-1.09-.06-.48-.24-.86-.54-1.16-.31-.3-.68-.56-1.13-.79-.45-.23-.92-.44-1.42-.64-.5-.2-.95-.44-1.36-.73-.41-.29-.75-.64-1.02-1.06-.27-.42-.38-.96-.34-1.63.04-.52.16-1,.37-1.45.21-.45.52-.85.93-1.2.41-.35.93-.63,1.56-.85.63-.21,1.39-.33,2.26-.37.82-.04,1.5.03,2.05.21.54.18,1.12.42,1.73.7l-.46,2.81c-.17.04-.31.05-.42.04-.11,0-.23-.03-.39-.07-.02-.42-.07-.81-.14-1.18-.08-.36-.21-.68-.4-.95-.19-.27-.44-.47-.76-.62-.32-.14-.71-.21-1.19-.19Z" style="fill: #474d22;"/>
  </g>
  <g>
    <path d="M0,22.32c.03-7.4,5.45-13.75,14.38-13.7,9.03.04,14.34,6.43,14.3,13.84-.03,7.4-5.4,13.8-14.43,13.76C5.32,36.17-.03,29.72,0,22.32ZM20.08,22.41c.02-3.48-2.04-6.38-5.74-6.4-3.65-.02-5.67,2.86-5.69,6.34-.02,3.54,1.98,6.43,5.63,6.45,3.7.02,5.78-2.86,5.8-6.4Z" style="fill: #474d22;"/>
    <path d="M50.77,35.73v-3.16c-1.63,1.84-4.68,3.79-9.09,3.77-5.99-.03-8.64-3.42-8.62-8.26l.09-18.72,8.38.04-.07,15.29c-.01,3.16,1.61,4.25,4.33,4.27,2.4.01,4.03-1.29,5.02-2.53l.08-16.98,8.38.04-.12,26.29-8.38-.04Z" style="fill: #474d22;"/>
    <path d="M65.25,35.79l.12-26.29,8.38.04-.02,3.32c1.75-2.11,5.08-3.95,8.24-3.94l-.04,8.11c-.49-.17-1.2-.28-2.07-.28-2.18,0-5.07.9-6.16,2.42l-.08,16.65-8.38-.04Z" style="fill: #474d22;"/>
    <path d="M103.46,35.97l.07-15.19c.02-3.21-1.67-4.36-4.28-4.37-2.5-.01-4.14,1.34-5.13,2.53l-.08,16.98-8.38-.04.12-26.29,8.38.04-.02,3.21c1.59-1.84,4.7-3.84,9.11-3.82,5.99.03,8.69,3.52,8.67,8.37l-.09,18.61-8.38-.04Z" style="fill: #a7977e;"/>
    <path d="M130.3,9.15c7.78.04,13.42,5.78,13.38,14.7v1.8s-18.73-.09-18.73-.09c.48,2.45,2.75,4.69,6.67,4.71,2.34.01,4.96-.9,6.43-2.2l3.51,5.24c-2.62,2.33-6.98,3.45-11.01,3.43-8.11-.04-14.34-5.35-14.3-13.89.04-7.62,5.83-13.74,14.05-13.71ZM124.86,20.12l10.83.05c-.21-1.85-1.56-4.52-5.42-4.54-3.65-.02-5.07,2.59-5.41,4.49Z" style="fill: #a7977e;"/>
    <path d="M160.51,9.29c5.66.03,9.19,2.55,10.75,4.89l-5.47,5.04c-1.03-1.53-2.71-2.52-4.94-2.53-3.48-.02-6.16,2.37-6.18,6.34-.02,3.97,2.64,6.43,6.12,6.45,2.23.01,3.92-1.07,4.96-2.53l5.42,5.14c-1.59,2.28-5.14,4.82-10.8,4.79-8.22-.04-14.34-5.62-14.3-13.89.04-8.22,6.21-13.74,14.43-13.7Z" style="fill: #a7977e;"/>
    <path d="M191.62,36.38l-5.73-9.33-2.52,2.98-.03,6.31-8.38-.04.17-36.3,8.38.04-.09,20.52,8.05-10.47,10.12.05-9.74,11.93,10.11,14.36-10.34-.05Z" style="fill: #a7977e;"/>
  </g>
</svg>