<?xml version="1.0" encoding="UTF-8"?>
<svg id="Layer_1" data-name="Layer 1" xmlns="http://www.w3.org/2000/svg" viewBox="0 0 262.72 100.1">
  <g>
    <path d="M54.11,50c.61,2.92-2.05,4.45-2.39,4.84.36.5,1.86.26,3.59-.74,0,0-.86,4.54-4.89,5.07,1.89,1.33,2.31,1.97,2.31,1.97,0,0-4.84-1.03-5.36-1.03.5.53,4.09,5.78,9.78,1.95,0,0-1.67,4.72-2.97,5.25-.75-1.14-1.14-1.36-1.14-1.36l.14,2.28-1.2-2.25s-.03,2.11.47,2.53c-.94.28-3.64-.58-5.59-1.64,1.64,1.33,6.56,5.84,12.34,3.14,0,0,.44,3.33-1.28,4.22-1.08-.53-2.39-1.28-2.39-1.28l1.5,2.42s-1.56-1.11-2.45-1.53c-.28.72-.11,1.25.61,2.2-.58.36-1.5-1.06-1.67-2.36-.11,1.61-.14,2.42-.14,2.42l-2.25-2.03-.06,1.53s-.42-1.22-1.11-1.83c-.03,1.28-.11,1.42-.11,1.42,0,0-1.2-1.14-2.39-1.45,2.06,1.95,7.5,8.42,12.76,5.67-.81,4.19-3.97,4.47-4.78,3.95.11.47.19,1.28.19,1.28,0,0-1.58-.78-2.1-.81-.01.36,0,1.17,0,1.17,0,0-.74-.81-1.35-.53-.19,1.36,2.58,2.83,4.56,2.95,0,0-.58.33-1.42.19.17.94.11,1.21.11,1.21,0,0-.61-.49-1.24-.46.29.46,1.49,1.85,6.82,2.4-.56,1.8-6.42,2.41-7.36,2.3.11-.97-.11-1.14-.11-1.14,0,0-.83,1.36-1.56,1.53-.08-1.03.08-2.39-.11-2.36s-.28,1.61-.56,1.83c-.58-.14-.89-1.75-1.75-1.56.03.58.58,2.47.69,2.95-.64-.69-2.03-2.61-3.2-2.25.14,1.47,1.11,7.59,1.11,7.59l-6.74.47s1.54-6.23,1.49-10.31c-.74-.22-.65.76-.74,1.73-.1,1.02-1.23,1.64-2.15,1.5.26-.27,1.7-1.78,1.13-2.97-2,1.83-4.08,4.56-5.22,4.09,0,0,3.08-1.17,1.89-2.72s-1.97,1.39-3.95,2.58c.44-1.42.56-1.31.47-1.95s-1.56,1.08-1.97,1.22.25-1.2.25-1.2l-1.92.86.83-1.67-1.42.33-1.45-1.84s4.45.62,5.92-.91c-.86-.33-1.36-.17-1.36-.17v-.81s-.75.58-1.7.69c.78-1.36.08-3.59-1.7-1.72.11-.89-.08-1.95-.39-2.39,6.14,1.92,9.89-2.11,10.14-4.14,0,0-.72.94-1.08.92s-.31-1.28-2.14.42c-.36.11.25-.64-.03-.69-.56.86-1.83.5-4-1.25,0,0,6.53-.11,6.75-2.2-.69.31-1.31.64-2.58.58l2.58-.58c-.69.31-1.31.71-2.58.58.14-.58-.89-.58-1.53.36-.31-1.75-2.11.31-3.06.33.58-.53,1.53-1.06,1.22-1.47-.89.19-1.58.19-2.11,0,0,0,1.83-.92,2.03-1.72-.36-.17-.61.28-1.17,0,.19-1.03.36-1.28-.03-1.5-.53-.11-.81-.02-1.36,0,.11-.56.03-1.22-.22-1.86,0,0,2.95,3.61,10.06-2.86-1.22.28-3.28.28-5.47-1.81,1.5.44,2.7,1.03,5.95-.83-2.11.39-5.72-.14-6.92-2.28.68.85,1.42,1.2,3.97.78-.97-.28-1.56-.78-1.56-.78,0,0,2.17-.14,3.89-1.33-1.25,0-3,.31-3.72-.19,1.03-.25,2.17-.53,3.08-1.42-1.17,0-2.33-.25-2.33-.25,0,0,1.06-.08,1.78-.44-1.11,0-4.09-.58-4.64-1.25.53.19,3.03.53,5.11.14,0-.58-1.2-1.11-1.22-1.42-.33,0-.89.44-1.03.72,0-.72.03-.92.03-.92,0,0-1,.11-1.14.25-.03-.58-1.64-2.5-1.81-3.56.81.47,3.39,3.84,6.5,1.2-.92-1.2-2-1.56-2.42-1.7-.53.31-1.67.22-1.67.22,0,0,.83-.25.83-.75-.42-.47-1.86-1.86-2.81-1.28,0,0,.25-1.31.11-1.95,1.64,1.72,2.97,2.36,5.78,2.58,0,0-1.64-2.33-1.72-4.61.86.75,3.31,3.86,3.67,1.89-.33-1.11-.53-1.67-1.95-1.45.06-.86-.17-1.11-.28-1.25s-.61.39-2,.31c.81-.78,1.06-1.7.36-4.09,1.39,2.06,2.2,2.47,3.25,2.72.28-.36-.11-1.06-.36-.94-.19-.39.44-.97-.31-.97s-1.2.08-1.2.08l-.33-.75s1.97.22,2.06.28-.47-2.17-2.67-2.33c0,0,1.47-1.22,2.97.97.19-.81-.97-3.84-1.25-4.28.67.22.81,2.17,2.31,1-.19-1.47-.72-2.67-.72-2.95.31.22.69,2.08,1.56,2.2.31-.33-.19-.97-.47-1.22.39-.42.92-.31.11-2.47.47.28.69.89,1.06.64.06-1.56.06-6.48.06-6.48,0,0,.44,5.75.53,6.03s.67.03.67.03c0,0-.44,1.08-.42,1.31s.47.19.81.17c-.28.58-.67,2.2-.53,2.81s1.97-1.61,2.86-1.81c-.17.8-.83,1.39-.53,2.7-.78-.33-1.67.22-2.14,1,.19.53.69,1.47,3.11-1.28.31,1.2-1.11,1.78-1.11,1.78,0,0,.58.11.69.53-.97-.03-1.39-.06-1.36.17s.58.75.61.97-.42-.06-.81.08-.36.69-.14.81,1.28-.39,1.7-.25c-.06.56-1.86,1.45-1.5,3.5.89.08,1.42-.03,2.72-2.81.92.94-.25,1.89-.25,1.89h1.67s-1.72.72-2.03,1.11.89,1.2,1.39,1.42l-1.39-.08s-1.37,1.06-1.47,1.39c-.17.56.78.78,2.17.67-.86.67-1,.83-.94,1.06s2.53.53,4.97-2.58c.61,2.92-1.89,4.72-2.39,4.84" style="fill: #474c21;"/>
    <path d="M35.37,28.67c.85,4.06-2.85,6.2-3.33,6.73.5.7,2.59.37,4.99-1.03,0,0-1.2,6.33-6.81,7.06,2.63,1.86,3.21,2.75,3.21,2.75,0,0-6.73-1.43-7.47-1.43.7.74,5.69,8.05,13.62,2.71,0,0-2.32,6.58-4.14,7.31-1.04-1.59-1.59-1.9-1.59-1.9l.19,3.17-1.66-3.13s-.04,2.94.66,3.52c-1.32.39-5.07-.81-7.78-2.28,2.28,1.86,9.13,8.13,17.18,4.37,0,0,.62,4.64-1.78,5.88-1.51-.74-3.33-1.78-3.33-1.78l2.09,3.37s-2.17-1.55-3.41-2.13c-.39,1.01-.15,1.74.85,3.06-.81.5-2.09-1.47-2.32-3.29-.15,2.24-.19,3.37-.19,3.37l-3.13-2.83-.08,2.13s-.58-1.7-1.55-2.55c-.04,1.78-.15,1.97-.15,1.97,0,0-1.66-1.59-3.33-2.01,2.86,2.71,10.45,11.72,17.76,7.89-1.12,5.83-5.53,6.23-6.66,5.49.15.66.27,1.78.27,1.78,0,0-2.21-1.08-2.92-1.12-.02.5,0,1.63,0,1.63,0,0-1.03-1.12-1.88-.74-.27,1.9,3.6,3.95,6.35,4.1,0,0-.81.46-1.97.27.23,1.32.15,1.68.15,1.68,0,0-.86-.68-1.72-.64.41.64,2.07,2.58,9.5,3.34-.77,2.5-8.94,3.35-10.25,3.2.15-1.35-.15-1.59-.15-1.59,0,0-1.16,1.9-2.17,2.13-.12-1.43.12-3.33-.15-3.29s-.39,2.24-.77,2.55c-.81-.19-1.24-2.44-2.44-2.17.04.81.81,3.44.97,4.1-.89-.97-2.82-3.64-4.45-3.13.19,2.05,1.55,10.56,1.55,10.56l-9.38.66s2.15-8.67,2.07-14.36c-1.03-.31-.9,1.06-1.03,2.4-.14,1.42-1.72,2.28-2.99,2.08.36-.37,2.37-2.48,1.57-4.14-2.79,2.55-5.68,6.35-7.26,5.69,0,0,4.3-1.63,2.63-3.79-1.66-2.17-2.75,1.93-5.49,3.6.62-1.97.77-1.82.66-2.71s-2.17,1.51-2.75,1.7.35-1.66.35-1.66l-2.67,1.2,1.16-2.32-1.97.46-2.01-2.56s6.19.86,8.24-1.27c-1.2-.46-1.9-.23-1.9-.23v-1.12s-1.04.81-2.36.97c1.08-1.9.12-4.99-2.36-2.4.15-1.24-.12-2.71-.54-3.33,8.55,2.67,13.78-2.94,14.12-5.77,0,0-1.01,1.32-1.51,1.28s-.43-1.78-2.98.58c-.5.15.35-.89-.04-.97-.77,1.2-2.55.7-5.57-1.74,0,0,9.09-.15,9.4-3.06-.97.43-1.82.89-3.6.81l3.6-.81c-.97.43-1.83.99-3.6.81.19-.81-1.24-.81-2.13.5-.43-2.44-2.94.43-4.26.46.81-.74,2.13-1.47,1.7-2.05-1.24.27-2.21.27-2.94,0,0,0,2.55-1.28,2.82-2.4-.5-.23-.85.39-1.63,0,.27-1.43.5-1.78-.04-2.09-.74-.15-1.12-.03-1.9,0,.15-.77.04-1.7-.31-2.59,0,0,4.1,5.03,14.01-3.99-1.7.39-4.57.39-7.62-2.52,2.09.62,3.75,1.43,8.28-1.16-2.94.54-7.97-.19-9.63-3.17.95,1.19,1.97,1.66,5.53,1.08-1.35-.39-2.17-1.08-2.17-1.08,0,0,3.02-.19,5.42-1.86-1.74,0-4.18.43-5.18-.27,1.43-.35,3.02-.74,4.3-1.97-1.63,0-3.25-.35-3.25-.35,0,0,1.47-.12,2.48-.62-1.55,0-5.69-.81-6.46-1.74.74.27,4.22.74,7.12.19,0-.81-1.66-1.55-1.7-1.97-.46,0-1.24.62-1.43,1.01,0-1.01.04-1.28.04-1.28,0,0-1.39.15-1.59.35-.04-.81-2.28-3.48-2.52-4.95,1.12.66,4.72,5.34,9.05,1.66-1.28-1.66-2.79-2.17-3.37-2.36-.74.43-2.32.31-2.32.31,0,0,1.16-.35,1.16-1.04-.58-.66-2.59-2.59-3.91-1.78,0,0,.35-1.82.15-2.71,2.28,2.4,4.14,3.29,8.05,3.6,0,0-2.28-3.25-2.4-6.42,1.2,1.04,4.6,5.38,5.11,2.63-.46-1.55-.74-2.32-2.71-2.01.08-1.2-.23-1.55-.39-1.74s-.85.54-2.79.43c1.12-1.08,1.47-2.36.5-5.69,1.93,2.86,3.06,3.44,4.53,3.79.39-.5-.15-1.47-.5-1.32-.27-.54.62-1.35-.43-1.35s-1.66.12-1.66.12l-.46-1.04s2.75.31,2.86.39-.66-3.02-3.71-3.25c0,0,2.05-1.7,4.14,1.35.27-1.12-1.35-5.34-1.74-5.96.93.31,1.12,3.02,3.21,1.39-.27-2.05-1.01-3.71-1.01-4.1.43.31.97,2.9,2.17,3.06.43-.46-.27-1.35-.66-1.7.54-.58,1.28-.43.15-3.44.66.39.97,1.24,1.47.89.08-2.17.08-9.02.08-9.02,0,0,.62,8.01.74,8.4s.93.04.93.04c0,0-.62,1.51-.58,1.82s.66.27,1.12.23c-.39.81-.93,3.06-.74,3.91s2.75-2.24,3.99-2.52c-.24,1.11-1.16,1.93-.74,3.75-1.08-.46-2.32.31-2.98,1.39.27.74.97,2.05,4.33-1.78.43,1.66-1.55,2.48-1.55,2.48,0,0,.81.15.97.74-1.35-.04-1.93-.08-1.9.23s.81,1.04.85,1.35-.58-.08-1.12.12-.5.97-.19,1.12,1.78-.54,2.36-.35c-.08.77-2.59,2.01-2.09,4.88,1.24.12,1.97-.04,3.79-3.91,1.28,1.32-.35,2.63-.35,2.63h2.32s-2.4,1.01-2.82,1.55,1.24,1.66,1.93,1.97l-1.93-.12s-1.91,1.48-2.05,1.93c-.23.77,1.08,1.08,3.02.93-1.2.93-1.39,1.16-1.32,1.47s3.52.74,6.93-3.6c.85,4.06-2.63,6.58-3.33,6.73" style="fill: #474c21;"/>
  </g>
  <g>
    <path d="M110.26,69.28c.55-.63,1.23-1.16,2.02-1.58.79-.42,1.61-.7,2.45-.85.84-.14,1.68-.15,2.51-.01.83.13,1.57.42,2.21.86.64.44,1.14,1.05,1.5,1.83.36.78.52,1.75.46,2.89-.04.63-.12,1.2-.24,1.71s-.28.97-.47,1.39c-.19.42-.41.81-.66,1.18-.25.36-.52.72-.8,1.06-.54.63-1.19,1.14-1.95,1.53-.76.39-1.56.65-2.38.79-.82.13-1.63.13-2.44-.01-.8-.14-1.52-.44-2.15-.9-.63-.46-1.14-1.08-1.52-1.86-.38-.78-.55-1.74-.52-2.87.02-1.18.21-2.16.57-2.94.36-.77.83-1.51,1.4-2.22ZM113.84,79.17c.73,0,1.36-.28,1.89-.85.53-.56.96-1.28,1.28-2.14.32-.86.53-1.79.66-2.79.12-1,.13-1.93.03-2.79-.11-.86-.31-1.58-.62-2.15-.31-.57-.73-.86-1.26-.86-.73,0-1.35.29-1.88.86s-.95,1.29-1.28,2.16c-.33.87-.54,1.81-.66,2.81s-.12,1.93-.03,2.78c.1.85.3,1.56.6,2.13s.73.85,1.26.83Z" style="fill: #474d22;"/>
    <path d="M119.94,88.08c-.31.08-.73.12-1.26.12-.5,0-.99-.05-1.49-.16-.5-.1-.89-.26-1.18-.47.04-.13.06-.24.07-.32,0-.08.03-.19.07-.34.02-.1.05-.24.1-.44.05-.2.1-.42.14-.64.05-.23.1-.45.14-.66.05-.21.08-.37.1-.49.15-.04.28-.07.39-.09.1-.02.21-.03.3-.03s.2.01.3.04c.1.03.23.06.39.1-.11.61-.12,1.09-.01,1.45s.26.61.47.77c.21.16.44.25.69.27.25.02.45,0,.6-.06.23-.08.46-.27.69-.59.23-.32.45-.71.67-1.17.22-.47.42-1,.6-1.61.18-.6.34-1.24.47-1.91.53-2.45.99-4.79,1.36-7.02s.77-4.42,1.19-6.56h-2.09c0-.06,0-.15.03-.29.02-.13.08-.28.17-.43.48-.08.9-.14,1.26-.2.36-.06.73-.29,1.09-.69l.14-.23c.21-.75.44-1.5.69-2.26.25-.76.59-1.47,1.03-2.12.44-.65,1-1.21,1.69-1.69.69-.48,1.58-.82,2.67-1.03.67-.12,1.31-.12,1.93,0,.62.11,1.12.33,1.5.66-.1.44-.18.85-.24,1.23s-.15.76-.24,1.15c-.25.11-.48.16-.7.13-.22-.03-.4-.05-.53-.07.06-.55,0-1.02-.17-1.4-.17-.38-.41-.65-.72-.8-.31-.15-.65-.17-1.05-.06-.39.11-.78.38-1.16.8-.21.17-.4.45-.56.84-.16.39-.33.97-.5,1.73-.17.67-.3,1.28-.39,1.83-.09.55-.2,1.17-.33,1.83.61,0,1.27,0,1.96-.01.7,0,1.29-.01,1.76-.01-.02.19-.05.35-.09.49-.04.13-.12.33-.26.6h-3.61c-.1.44-.2.95-.3,1.52s-.21,1.14-.3,1.69c-.17.99-.35,2.06-.54,3.21-.19,1.15-.43,2.3-.7,3.45-.28,1.16-.6,2.28-.97,3.37-.37,1.09-.81,2.08-1.32,2.98-.51.9-1.08,1.66-1.73,2.29-.65.63-1.39,1.06-2.24,1.29Z" style="fill: #474d22;"/>
    <path d="M147.72,78.08c.02.08.04.17.06.29.02.11,0,.25-.03.4-.13.04-.31.1-.52.19-.21.09-.5.19-.87.3-.37.11-.85.24-1.42.39s-1.28.3-2.12.47c-.25.02-.43,0-.54-.04s-.19-.12-.23-.23c-.04-.1-.05-.23-.03-.39.02-.15.04-.32.06-.52l2.01-10.78-2.01.03c0-.25.09-.47.26-.66.38-.08.82-.26,1.32-.54.5-.29.98-.66,1.45-1.12.47-.46.91-1,1.32-1.62.41-.62.72-1.31.93-2.08.15-.04.38-.06.69-.06s.52.02.63.06c-.04.15-.1.42-.19.8-.09.38-.18.81-.27,1.29-.1.48-.2.96-.3,1.46s-.2.93-.27,1.29l3.44-.06c-.02.21-.06.39-.11.54-.06.15-.13.34-.23.57l-3.32.03c-.27,1.43-.55,2.89-.86,4.37-.31,1.48-.55,2.94-.75,4.37-.08.5-.06.85.06,1.05.11.2.28.32.49.36.21.04.44.03.69-.03.25-.06.48-.1.69-.14Z" style="fill: #474d22;"/>
    <path d="M155.77,68.53c.4-.38.83-.71,1.29-.99.46-.28.92-.49,1.39-.63.47-.14.94-.21,1.42-.21s.93.1,1.35.29c.36.17.64.43.82.77.18.34.29.74.33,1.19.04.45.03.92-.01,1.41-.05.49-.12.95-.21,1.39-.04.23-.1.59-.19,1.09-.09.5-.18,1.01-.27,1.53s-.18,1.02-.26,1.48c-.08.46-.12.75-.14.89-.02.15-.04.31-.06.47-.02.16-.02.31,0,.43.02.12.07.23.14.3.08.08.21.11.4.11.21.02.41.01.59-.01.18-.03.42-.06.7-.1.04.1.05.22.04.39,0,.16-.03.26-.07.3-.31.11-.69.25-1.16.4-.47.15-.95.3-1.45.44-.5.14-.98.27-1.45.39s-.85.17-1.13.17c-.4-.04-.56-.28-.49-.72.1-.42.22-1.02.39-1.79.16-.77.33-1.58.5-2.42.17-.84.33-1.65.49-2.42.15-.77.28-1.37.37-1.79.21-.9.27-1.52.19-1.88s-.27-.58-.56-.67c-.19-.06-.45-.05-.77.01-.33.07-.66.22-1.02.47-.35.25-.68.6-.97,1.06-.3.46-.51,1.06-.65,1.81l-1.6,7.45c-.25.17-.56.31-.93.42-.37.11-.75.19-1.13.24-.44.08-.9.13-1.38.17.21-.97.45-2.13.72-3.48.27-1.35.54-2.73.82-4.16.28-1.42.53-2.81.77-4.17.24-1.36.45-2.53.63-3.53.18-.99.32-1.74.4-2.24.09-.5.11-.58.07-.26.02-.15.04-.31.06-.47.02-.16.02-.31,0-.43-.02-.12-.07-.22-.14-.3-.08-.08-.21-.11-.4-.11-.21-.02-.41-.01-.59.01-.18.03-.42.06-.7.1-.04-.09-.05-.22-.04-.39,0-.16.03-.26.07-.3.31-.12.69-.25,1.16-.4.47-.15.95-.3,1.45-.44s.98-.27,1.45-.39c.47-.12.85-.17,1.13-.17.4.04.56.28.49.72-.15.67-.31,1.38-.47,2.14-.16.75-.32,1.52-.47,2.29-.15.77-.31,1.55-.46,2.32-.15.77-.3,1.51-.43,2.22Z" style="fill: #474d22;"/>
    <path d="M171.05,66.73c1.39-.1,2.46.07,3.2.49.73.42,1.11,1.03,1.13,1.83.02.96-.23,1.78-.75,2.46-.52.69-1.16,1.22-1.93,1.61s-1.6.62-2.48.7c-.88.09-1.66,0-2.35-.24-.08.34-.12.81-.14,1.39s.03,1.15.14,1.71c.11.55.32,1.04.62,1.46.3.42.72.64,1.28.66.76.04,1.51-.2,2.25-.72.74-.52,1.44-1.12,2.11-1.81.25.04.42.1.5.17.09.08.16.18.21.32-1.51,2.24-3.41,3.35-5.7,3.35-.76,0-1.46-.13-2.08-.39-.62-.26-1.15-.62-1.58-1.09-.43-.47-.75-1.03-.97-1.68s-.31-1.37-.27-2.15c.04-.94.22-1.86.56-2.78.33-.92.79-1.74,1.38-2.48.58-.74,1.28-1.36,2.11-1.86.82-.51,1.75-.83,2.78-.96ZM171.16,71.92c.15-.17.3-.38.43-.63.13-.25.25-.52.34-.82.1-.3.17-.6.23-.9.06-.3.09-.59.09-.86,0-.34-.08-.64-.23-.89-.15-.25-.4-.35-.75-.32-.63.13-1.23.65-1.81,1.55-.57.9-.99,2.06-1.26,3.5.23.15.48.23.76.24.28,0,.55-.03.83-.11.28-.09.53-.2.77-.33.24-.13.43-.28.59-.43Z" style="fill: #474d22;"/>
    <path d="M202.95,66.87c.04.75,0,1.59-.13,2.54-.12.95-.33,1.91-.62,2.88-.29.97-.66,1.93-1.12,2.88-.46.95-.99,1.78-1.6,2.51-.61.73-1.31,1.31-2.09,1.76-.78.45-1.63.67-2.55.67-.33,0-.64-.05-.96-.14s-.6-.23-.85-.4c-.25-.17-.45-.38-.62-.63s-.25-.53-.27-.83c-.54.69-1.16,1.19-1.86,1.5-.71.31-1.45.48-2.24.5-.54,0-1.03-.08-1.48-.23-.45-.15-.84-.37-1.16-.66-.33-.29-.57-.62-.75-1.02-.17-.39-.25-.83-.23-1.33.02-.65.08-1.24.17-1.78s.22-1.07.36-1.59c.14-.53.3-1.07.47-1.63.17-.56.34-1.2.52-1.91.1-.32.1-.53.03-.6s-.19-.11-.34-.11c-.21.04-.42.07-.63.1-.21.03-.54.08-.97.16-.1-.15-.14-.31-.14-.47v-.27c1.43-.55,2.54-.97,3.31-1.26.77-.29,1.34-.5,1.71-.63.44-.15.74-.15.9,0,.16.15.24.29.24.4,0,.19-.1.61-.3,1.26-.2.65-.43,1.4-.69,2.26-.26.86-.52,1.76-.77,2.71-.26.95-.44,1.82-.54,2.62-.11.8-.11,1.47-.01,2.01.09.54.36.81.8.83.65.04,1.27-.18,1.85-.64s1.11-1.07,1.58-1.81c.47-.74.86-1.55,1.19-2.45.32-.9.56-1.76.7-2.58.14-.82.18-1.56.1-2.21s-.28-1.1-.6-1.35c.23-.29.51-.52.85-.69.33-.17.65-.29.96-.34s.57-.05.79.01c.22.07.33.19.33.36.08.29.06.77-.04,1.46-.11.69-.24,1.47-.42,2.34-.17.87-.35,1.77-.54,2.71-.19.94-.32,1.79-.4,2.57-.08.77-.08,1.41,0,1.91.08.5.29.75.63.75.65,0,1.26-.19,1.83-.56.57-.37,1.08-.86,1.53-1.46.45-.6.84-1.3,1.16-2.09.32-.79.56-1.61.72-2.44s.21-1.66.17-2.49-.18-1.59-.43-2.28c.1-.06.2-.13.3-.21.11-.09.24-.17.42-.24s.39-.15.66-.21c.27-.07.63-.11,1.09-.13Z" style="fill: #474d22;"/>
    <path d="M205.53,69.28c.55-.63,1.23-1.16,2.02-1.58s1.61-.7,2.45-.85,1.68-.15,2.51-.01c.83.13,1.57.42,2.21.86s1.14,1.05,1.5,1.83c.36.78.52,1.75.46,2.89-.04.63-.12,1.2-.24,1.71s-.28.97-.47,1.39c-.19.42-.41.81-.66,1.18-.25.36-.52.72-.8,1.06-.54.63-1.18,1.14-1.95,1.53-.76.39-1.56.65-2.38.79-.82.13-1.63.13-2.44-.01-.8-.14-1.52-.44-2.15-.9-.63-.46-1.14-1.08-1.52-1.86-.38-.78-.55-1.74-.52-2.87.02-1.18.21-2.16.57-2.94.36-.77.83-1.51,1.4-2.22ZM209.11,79.17c.73,0,1.36-.28,1.89-.85s.96-1.28,1.28-2.14c.31-.86.53-1.79.66-2.79.12-1,.13-1.93.03-2.79-.11-.86-.31-1.58-.62-2.15s-.73-.86-1.26-.86c-.73,0-1.35.29-1.88.86s-.95,1.29-1.28,2.16-.54,1.81-.66,2.81-.12,1.93-.03,2.78c.09.85.3,1.56.6,2.13s.73.85,1.26.83Z" style="fill: #474d22;"/>
    <path d="M219.66,69.28c.55-.63,1.23-1.16,2.02-1.58s1.61-.7,2.45-.85,1.68-.15,2.51-.01c.83.13,1.57.42,2.21.86s1.14,1.05,1.5,1.83c.36.78.52,1.75.46,2.89-.04.63-.12,1.2-.24,1.71s-.28.97-.47,1.39c-.19.42-.41.81-.66,1.18-.25.36-.52.72-.8,1.06-.54.63-1.18,1.14-1.95,1.53-.76.39-1.56.65-2.38.79-.82.13-1.63.13-2.44-.01-.8-.14-1.52-.44-2.15-.9-.63-.46-1.14-1.08-1.52-1.86-.38-.78-.55-1.74-.52-2.87.02-1.18.21-2.16.57-2.94.36-.77.83-1.51,1.4-2.22ZM223.24,79.17c.73,0,1.36-.28,1.89-.85s.96-1.28,1.28-2.14c.31-.86.53-1.79.66-2.79.12-1,.13-1.93.03-2.79-.11-.86-.31-1.58-.62-2.15s-.73-.86-1.26-.86c-.73,0-1.35.29-1.88.86s-.95,1.29-1.28,2.16-.54,1.81-.66,2.81-.12,1.93-.03,2.78c.09.85.3,1.56.6,2.13s.73.85,1.26.83Z" style="fill: #474d22;"/>
    <path d="M239.4,79.51s.02-.15.06-.4c.04-.25.09-.53.14-.85.06-.32.12-.62.17-.92.06-.3.09-.5.11-.62-.17.33-.37.67-.6,1.03-.23.36-.49.71-.79,1.03-.3.33-.63.61-.99.85-.36.24-.77.39-1.23.44-.8.08-1.48.01-2.04-.19-.55-.2-1-.5-1.33-.9-.33-.4-.57-.88-.72-1.42-.14-.54-.22-1.13-.22-1.76,0-.97.18-1.99.54-3.04s.88-2.02,1.55-2.9c.67-.88,1.47-1.61,2.41-2.19s1.98-.89,3.12-.93c.57-.04.96,0,1.18.1.21.11.41.21.6.3.15-.75.28-1.35.39-1.82.11-.47.19-.86.26-1.19.07-.32.12-.61.17-.86.05-.25.09-.53.13-.83.02-.15.03-.31.04-.47,0-.16,0-.31-.03-.43-.03-.12-.09-.22-.19-.3-.1-.08-.24-.11-.43-.11-.21-.02-.41-.01-.59.01-.18.03-.42.06-.7.1-.04-.1-.05-.22-.04-.39,0-.16.03-.26.07-.3.31-.12.69-.25,1.16-.4.47-.15.95-.3,1.45-.44.5-.14.98-.27,1.45-.39.47-.12.85-.17,1.13-.17.4.04.56.28.49.72-.57,2.85-1.04,5.19-1.4,7.04s-.66,3.37-.89,4.59c-.23,1.21-.42,2.21-.57,3s-.3,1.54-.43,2.26c-.06.29-.07.52-.04.7.03.18.18.26.44.24.04-.02.21-.05.5-.1.3-.05.62-.15.99-.3.17.21.25.47.23.77-.78.4-1.57.78-2.36,1.15-.79.36-1.54.65-2.25.86-.38.13-.65.14-.79.03-.14-.11-.2-.32-.16-.6ZM236.19,78.48c.52.06.99-.08,1.43-.4.44-.32.84-.77,1.19-1.33s.66-1.21.93-1.94c.27-.73.49-1.45.67-2.16.18-.72.32-1.4.4-2.05s.13-1.18.13-1.6c0-.46-.14-.81-.42-1.05-.28-.24-.54-.35-.79-.33-.44.04-.89.33-1.36.87-.47.54-.9,1.21-1.3,1.99s-.75,1.63-1.06,2.55-.52,1.77-.63,2.57-.11,1.46,0,2.01.38.84.8.87Z" style="fill: #474d22;"/>
    <path d="M252.88,67.47c-.27,0-.54.06-.8.17-.27.11-.51.27-.72.47-.21.2-.38.43-.5.69s-.17.54-.13.85c.04.42.21.75.52,1s.67.46,1.1.64c.43.18.89.36,1.39.54.5.18.96.42,1.39.73s.79.7,1.08,1.18c.29.48.45,1.1.49,1.86,0,.73-.16,1.37-.49,1.92-.33.55-.76,1.02-1.32,1.39-.55.37-1.2.66-1.93.86-.74.2-1.51.31-2.34.33-.73.04-1.44-.06-2.15-.29-.71-.23-1.32-.5-1.83-.8l.6-3.64c.1-.02.21-.04.33-.06.12-.02.28,0,.47.06.02.5.06.98.12,1.46.06.48.18.9.37,1.26s.47.65.83.87.87.31,1.52.27c.34,0,.68-.07,1-.2.33-.13.62-.32.87-.54.26-.23.46-.51.62-.83.15-.32.21-.69.17-1.09-.06-.48-.24-.86-.54-1.16-.31-.3-.68-.56-1.13-.79-.45-.23-.92-.44-1.42-.64-.5-.2-.95-.44-1.36-.73-.41-.29-.75-.64-1.02-1.06-.27-.42-.38-.96-.34-1.63.04-.52.16-1,.37-1.45.21-.45.52-.85.93-1.2.41-.35.93-.63,1.56-.85.63-.21,1.39-.33,2.26-.37.82-.04,1.5.03,2.05.21.54.18,1.12.42,1.73.7l-.46,2.81c-.17.04-.31.05-.42.04-.11,0-.23-.03-.39-.07-.02-.42-.07-.81-.14-1.18-.08-.36-.21-.68-.4-.95-.19-.27-.44-.47-.76-.62-.32-.14-.71-.21-1.19-.19Z" style="fill: #474d22;"/>
  </g>
  <g>
    <path d="M60.75,42.49c.03-7.4,5.45-13.75,14.38-13.7,9.03.04,14.34,6.43,14.3,13.84-.03,7.4-5.4,13.8-14.43,13.76-8.93-.04-14.28-6.49-14.25-13.89ZM80.84,42.58c.02-3.48-2.04-6.38-5.74-6.4-3.65-.02-5.67,2.86-5.69,6.34-.02,3.54,1.98,6.43,5.63,6.45,3.7.02,5.78-2.86,5.8-6.4Z" style="fill: #474d22;"/>
    <path d="M111.53,55.89v-3.16c-1.63,1.84-4.68,3.79-9.09,3.77-5.99-.03-8.64-3.42-8.62-8.26l.09-18.72,8.38.04-.07,15.29c-.01,3.16,1.61,4.25,4.33,4.27,2.4.01,4.03-1.29,5.02-2.53l.08-16.98,8.38.04-.12,26.29-8.38-.04Z" style="fill: #474d22;"/>
    <path d="M126,55.96l.12-26.29,8.38.04-.02,3.32c1.75-2.11,5.08-3.95,8.24-3.94l-.04,8.11c-.49-.17-1.2-.28-2.07-.28-2.18,0-5.07.9-6.16,2.42l-.08,16.65-8.38-.04Z" style="fill: #474d22;"/>
    <path d="M164.21,56.14l.07-15.19c.02-3.21-1.67-4.36-4.28-4.37-2.5-.01-4.14,1.34-5.13,2.53l-.08,16.98-8.38-.04.12-26.29,8.38.04-.02,3.21c1.59-1.84,4.7-3.84,9.11-3.82,5.99.03,8.69,3.52,8.67,8.37l-.09,18.61-8.38-.04Z" style="fill: #a7977e;"/>
    <path d="M191.06,29.32c7.78.04,13.42,5.78,13.38,14.7v1.8s-18.73-.09-18.73-.09c.48,2.45,2.75,4.69,6.67,4.71,2.34.01,4.96-.9,6.43-2.2l3.51,5.24c-2.62,2.33-6.98,3.45-11.01,3.43-8.11-.04-14.34-5.35-14.3-13.89.04-7.62,5.83-13.74,14.05-13.71ZM185.62,40.29l10.83.05c-.21-1.85-1.56-4.52-5.42-4.54-3.65-.02-5.07,2.59-5.41,4.49Z" style="fill: #a7977e;"/>
    <path d="M221.26,29.46c5.66.03,9.19,2.55,10.75,4.89l-5.47,5.04c-1.03-1.53-2.71-2.52-4.94-2.53-3.48-.02-6.16,2.37-6.18,6.34-.02,3.97,2.64,6.43,6.12,6.45,2.23.01,3.92-1.07,4.96-2.53l5.42,5.14c-1.59,2.28-5.14,4.82-10.8,4.79-8.22-.04-14.34-5.62-14.3-13.89.04-8.22,6.21-13.74,14.43-13.7Z" style="fill: #a7977e;"/>
    <path d="M252.38,56.55l-5.73-9.33-2.52,2.98-.03,6.31-8.38-.04.17-36.3,8.38.04-.09,20.52,8.05-10.47,10.12.05-9.74,11.93,10.11,14.36-10.34-.05Z" style="fill: #a7977e;"/>
  </g>
</svg>