<?xml version="1.0" encoding="UTF-8"?>
<svg id="Layer_1" data-name="Layer 1" xmlns="http://www.w3.org/2000/svg" viewBox="0 0 148.8 234.53">
  <g>
    <path d="M132.24,119.68c1.46,6.98-4.9,10.66-5.72,11.58.86,1.2,4.46.63,8.58-1.76,0,0-2.06,10.88-11.71,12.14,4.52,3.19,5.52,4.72,5.52,4.72,0,0-11.58-2.46-12.84-2.46,1.2,1.26,9.78,13.84,23.42,4.66,0,0-3.99,11.31-7.12,12.57-1.8-2.73-2.73-3.26-2.73-3.26l.33,5.45-2.86-5.39s-.07,5.06,1.13,6.05c-2.26.67-8.71-1.4-13.37-3.92,3.92,3.19,15.7,13.97,29.54,7.52,0,0,1.06,7.98-3.06,10.11-2.59-1.26-5.72-3.06-5.72-3.06l3.59,5.79s-3.73-2.66-5.85-3.66c-.67,1.73-.27,2.99,1.46,5.26-1.4.86-3.59-2.53-3.99-5.65-.27,3.86-.33,5.79-.33,5.79l-5.39-4.86-.13,3.66s-1-2.93-2.66-4.39c-.07,3.06-.27,3.39-.27,3.39,0,0-2.86-2.73-5.72-3.46,4.92,4.66,17.96,20.16,30.53,13.57-1.93,10.02-9.51,10.71-11.44,9.45.27,1.13.47,3.06.47,3.06,0,0-3.79-1.86-5.02-1.93-.03.86,0,2.79,0,2.79,0,0-1.76-1.93-3.23-1.26-.47,3.26,6.19,6.79,10.91,7.05,0,0-1.4.8-3.39.47.4,2.26.27,2.89.27,2.89,0,0-1.47-1.16-2.96-1.1.7,1.1,3.56,4.43,16.34,5.74-1.33,4.3-15.37,5.77-17.63,5.5.27-2.33-.27-2.73-.27-2.73,0,0-2,3.26-3.73,3.66-.2-2.46.2-5.72-.27-5.65s-.67,3.86-1.33,4.39c-1.4-.33-2.13-4.19-4.19-3.73.07,1.4,1.4,5.92,1.66,7.05-1.53-1.66-4.86-6.25-7.65-5.39.33,3.53,2.66,14.17,2.66,14.17l-16.13.03s3.69-9.81,3.56-19.59c-1.78-.54-1.55,1.83-1.77,4.13-.24,2.44-2.95,3.92-5.14,3.58.62-.64,4.08-4.26,2.71-7.12-4.79,4.39-9.76,10.91-12.48,9.78,0,0,7.38-2.79,4.52-6.52s-4.72,3.33-9.45,6.19c1.06-3.39,1.33-3.13,1.13-4.66-.2-1.53-3.73,2.59-4.72,2.93s.6-2.86.6-2.86l-4.59,2.06,2-3.99-3.39.8-3.46-4.4s10.64,1.47,14.17-2.18c-2.06-.8-3.26-.4-3.26-.4v-1.93s-1.79,1.39-4.06,1.66c1.86-3.26.2-8.58-4.06-4.12.27-2.13-.2-4.66-.93-5.72,14.7,4.59,23.68-5.06,24.28-9.91,0,0-1.73,2.26-2.59,2.2-.86-.07-.73-3.06-5.12,1-.86.27.6-1.53-.07-1.66-1.33,2.06-4.39,1.2-9.58-2.99,0,0,15.63-.27,16.17-5.26-1.66.73-3.13,1.53-6.19,1.4l6.19-1.4c-1.66.73-3.14,1.7-6.19,1.4.33-1.4-2.13-1.4-3.66.86-.73-4.19-5.06.73-7.32.8,1.4-1.28,3.66-2.53,2.93-3.53-2.13.47-3.79.47-5.06,0,0,0,4.39-2.2,4.86-4.12-.86-.4-1.46.67-2.79,0,.47-2.46.86-3.06-.07-3.59-1.26-.27-1.93-.05-3.26,0,.27-1.33.07-2.93-.53-4.46,0,0,7.05,8.65,24.08-6.85-2.93.67-7.85.67-13.11-4.32,3.59,1.06,6.45,2.46,14.24-2-5.06.93-13.7-.33-16.56-5.45,1.64,2.04,3.39,2.86,9.51,1.86-2.33-.67-3.73-1.86-3.73-1.86,0,0,5.19-.33,9.31-3.19-2.99,0-7.18.73-8.91-.47,2.46-.6,5.19-1.26,7.38-3.39-2.79,0-5.59-.6-5.59-.6,0,0,2.53-.2,4.26-1.06-2.66,0-9.78-1.4-11.11-2.99,1.26.47,7.25,1.26,12.24.33,0-1.4-2.86-2.66-2.93-3.39-.8,0-2.13,1.06-2.46,1.73,0-1.73.07-2.2.07-2.2,0,0-2.39.27-2.73.6-.07-1.4-3.92-5.99-4.32-8.51,1.93,1.13,8.12,9.18,15.57,2.86-2.2-2.86-4.79-3.73-5.79-4.06-1.26.73-3.99.53-3.99.53,0,0,2-.6,2-1.8-1-1.13-4.46-4.46-6.72-3.06,0,0,.6-3.13.27-4.66,3.92,4.12,7.12,5.65,13.84,6.19,0,0-3.92-5.59-4.12-11.04,2.06,1.8,7.92,9.25,8.78,4.52-.8-2.66-1.26-3.99-4.66-3.46.13-2.06-.4-2.66-.67-2.99s-1.46.93-4.79.73c1.93-1.86,2.53-4.06.86-9.78,3.33,4.92,5.26,5.92,7.78,6.52.67-.86-.27-2.53-.86-2.26-.47-.93,1.06-2.33-.73-2.33s-2.86.2-2.86.2l-.8-1.8s4.72.53,4.92.67-1.13-5.19-6.39-5.59c0,0,3.53-2.93,7.12,2.33.47-1.93-2.33-9.18-2.99-10.24,1.6.53,1.93,5.19,5.52,2.39-.47-3.53-1.73-6.39-1.73-7.05.73.53,1.66,4.99,3.73,5.26.73-.8-.47-2.33-1.13-2.93.93-1,2.2-.73.27-5.92,1.13.67,1.66,2.13,2.53,1.53.13-3.73.13-15.5.13-15.5,0,0,1.06,13.77,1.26,14.44s1.6.07,1.6.07c0,0-1.06,2.59-1,3.13s1.13.47,1.93.4c-.67,1.4-1.6,5.26-1.26,6.72s4.72-3.86,6.85-4.32c-.42,1.91-2,3.33-1.26,6.45-1.86-.8-3.99.53-5.12,2.39.47,1.26,1.66,3.53,7.45-3.06.73,2.86-2.66,4.26-2.66,4.26,0,0,1.4.27,1.66,1.26-2.33-.07-3.33-.13-3.26.4s1.4,1.8,1.46,2.33-1-.13-1.93.2-.86,1.66-.33,1.93,3.06-.93,4.06-.6c-.13,1.33-4.46,3.46-3.59,8.38,2.13.2,3.39-.07,6.52-6.72,2.2,2.26-.6,4.52-.6,4.52h3.99s-4.12,1.73-4.86,2.66,2.13,2.86,3.33,3.39l-3.33-.2s-3.29,2.54-3.53,3.33c-.4,1.33,1.86,1.86,5.19,1.6-2.06,1.6-2.39,2-2.26,2.53s6.05,1.26,11.91-6.19c1.46,6.98-4.52,11.31-5.72,11.58" style="fill: #474c21;"/>
    <path d="M87.36,68.63c2.04,9.73-6.82,14.85-7.97,16.12,1.2,1.67,6.21.88,11.95-2.45,0,0-2.87,15.14-16.3,16.9,6.3,4.45,7.69,6.58,7.69,6.58,0,0-16.12-3.43-17.88-3.43,1.67,1.76,13.62,19.27,32.6,6.48,0,0-5.56,15.75-9.91,17.51-2.5-3.8-3.8-4.54-3.8-4.54l.46,7.59-3.98-7.5s-.09,7.04,1.57,8.43c-3.15.93-12.13-1.95-18.62-5.46,5.46,4.45,21.86,19.45,41.12,10.47,0,0,1.48,11.11-4.26,14.08-3.61-1.76-7.97-4.26-7.97-4.26l5,8.06s-5.19-3.7-8.15-5.09c-.93,2.41-.37,4.17,2.04,7.32-1.95,1.2-5-3.52-5.56-7.87-.37,5.37-.46,8.06-.46,8.06l-7.5-6.77-.19,5.09s-1.39-4.08-3.7-6.11c-.09,4.26-.37,4.72-.37,4.72,0,0-3.98-3.8-7.97-4.82,6.85,6.48,25.01,28.06,42.51,18.89-2.69,13.95-13.24,14.91-15.93,13.15.37,1.57.65,4.26.65,4.26,0,0-5.28-2.59-6.99-2.69-.05,1.2,0,3.89,0,3.89,0,0-2.45-2.69-4.49-1.76-.65,4.54,8.61,9.45,15.19,9.82,0,0-1.95,1.11-4.72.65.56,3.15.37,4.03.37,4.03,0,0-2.05-1.62-4.13-1.53.98,1.53,4.96,6.17,22.74,7.99-1.85,5.99-21.4,8.03-24.54,7.66.37-3.24-.37-3.8-.37-3.8,0,0-2.78,4.54-5.19,5.09-.28-3.43.28-7.97-.37-7.87s-.93,5.37-1.85,6.11c-1.95-.46-2.96-5.84-5.84-5.19.09,1.95,1.95,8.24,2.32,9.82-2.13-2.32-6.76-8.71-10.65-7.5.46,4.91,3.7,25.29,3.7,25.29l-22.64.47s5.32-19.64,5.13-33.26c-2.47-.75-2.16,2.55-2.47,5.75-.33,3.4-4.11,5.45-7.16,4.99.86-.9,5.68-5.93,3.77-9.91-6.67,6.11-13.59,15.19-17.38,13.62,0,0,10.28-3.89,6.3-9.08-3.98-5.19-6.58,4.63-13.15,8.61,1.48-4.72,1.85-4.35,1.57-6.48s-5.19,3.61-6.58,4.08c-1.39.46.83-3.98.83-3.98l-6.39,2.87,2.78-5.56-4.72,1.11-4.82-6.13s14.82,2.05,19.73-3.04c-2.87-1.11-4.54-.56-4.54-.56v-2.69s-2.49,1.94-5.65,2.32c2.59-4.54.28-11.95-5.65-5.74.37-2.96-.28-6.48-1.3-7.97,20.47,6.39,32.97-7.04,33.81-13.8,0,0-2.41,3.15-3.61,3.06s-1.02-4.26-7.13,1.39c-1.2.37.83-2.13-.09-2.32-1.85,2.87-6.11,1.67-13.34-4.17,0,0,21.77-.37,22.51-7.32-2.32,1.02-4.35,2.13-8.61,1.95l8.61-1.95c-2.32,1.02-4.37,2.37-8.61,1.95.46-1.95-2.96-1.95-5.09,1.2-1.02-5.84-7.04,1.02-10.19,1.11,1.95-1.78,5.09-3.52,4.08-4.91-2.96.65-5.28.65-7.04,0,0,0,6.11-3.06,6.76-5.74-1.2-.56-2.04.93-3.89,0,.65-3.43,1.2-4.26-.09-5-1.76-.37-2.69-.07-4.54,0,.37-1.85.09-4.08-.74-6.21,0,0,9.82,12.04,33.53-9.54-4.08.93-10.93.93-18.25-6.02,5,1.48,8.98,3.43,19.82-2.78-7.04,1.3-19.08-.46-23.06-7.59,2.28,2.84,4.72,3.98,13.24,2.59-3.24-.93-5.19-2.59-5.19-2.59,0,0,7.22-.46,12.97-4.45-4.17,0-10,1.02-12.41-.65,3.43-.83,7.22-1.76,10.28-4.72-3.89,0-7.78-.83-7.78-.83,0,0,3.52-.28,5.93-1.48-3.7,0-13.62-1.95-15.47-4.17,1.76.65,10.1,1.76,17.04.46,0-1.95-3.98-3.7-4.08-4.72-1.11,0-2.96,1.48-3.43,2.41,0-2.41.09-3.06.09-3.06,0,0-3.33.37-3.8.83-.09-1.95-5.46-8.34-6.02-11.86,2.69,1.57,11.3,12.78,21.67,3.98-3.06-3.98-6.67-5.19-8.06-5.65-1.76,1.02-5.56.74-5.56.74,0,0,2.78-.83,2.78-2.5-1.39-1.57-6.21-6.21-9.35-4.26,0,0,.83-4.35.37-6.48,5.46,5.74,9.91,7.87,19.27,8.61,0,0-5.46-7.78-5.74-15.38,2.87,2.5,11.02,12.87,12.23,6.3-1.11-3.7-1.76-5.56-6.48-4.82.19-2.87-.56-3.7-.93-4.17s-2.04,1.3-6.67,1.02c2.69-2.59,3.52-5.65,1.2-13.62,4.63,6.85,7.32,8.24,10.84,9.08.93-1.2-.37-3.52-1.2-3.15-.65-1.3,1.48-3.24-1.02-3.24s-3.98.28-3.98.28l-1.11-2.5s6.58.74,6.85.93-1.57-7.22-8.89-7.78c0,0,4.91-4.08,9.91,3.24.65-2.69-3.24-12.78-4.17-14.26,2.22.74,2.69,7.22,7.69,3.33-.65-4.91-2.41-8.89-2.41-9.82,1.02.74,2.32,6.95,5.19,7.32,1.02-1.11-.65-3.24-1.57-4.08,1.3-1.39,3.06-1.02.37-8.24,1.57.93,2.32,2.96,3.52,2.13.19-5.19.19-21.58.19-21.58,0,0,1.48,19.17,1.76,20.1s2.22.09,2.22.09c0,0-1.48,3.61-1.39,4.35s1.57.65,2.69.56c-.93,1.95-2.22,7.32-1.76,9.35s6.58-5.37,9.54-6.02c-.58,2.66-2.78,4.63-1.76,8.98-2.59-1.11-5.56.74-7.13,3.33.65,1.76,2.32,4.91,10.37-4.26,1.02,3.98-3.7,5.93-3.7,5.93,0,0,1.95.37,2.32,1.76-3.24-.09-4.63-.19-4.54.56s1.95,2.5,2.04,3.24-1.39-.19-2.69.28-1.2,2.32-.46,2.69,4.26-1.3,5.65-.83c-.19,1.85-6.21,4.82-5,11.67,2.96.28,4.72-.09,9.08-9.35,3.06,3.15-.83,6.3-.83,6.3h5.56s-5.74,2.41-6.76,3.7,2.96,3.98,4.63,4.72l-4.63-.28s-4.58,3.53-4.91,4.63c-.56,1.85,2.59,2.59,7.22,2.22-2.87,2.22-3.33,2.78-3.15,3.52s8.43,1.76,16.58-8.61c2.04,9.73-6.3,15.75-7.97,16.12" style="fill: #474c21;"/>
  </g>
  <g>
    <path d="M129.53,119.68c1.46,6.98-4.9,10.66-5.72,11.58.86,1.2,4.46.63,8.58-1.76,0,0-2.06,10.88-11.71,12.14,4.52,3.19,5.52,4.72,5.52,4.72,0,0-11.58-2.46-12.84-2.46,1.2,1.26,9.78,13.84,23.42,4.66,0,0-3.99,11.31-7.12,12.57-1.8-2.73-2.73-3.26-2.73-3.26l.33,5.45-2.86-5.39s-.07,5.06,1.13,6.05c-2.26.67-8.71-1.4-13.37-3.92,3.92,3.19,15.7,13.97,29.54,7.52,0,0,1.06,7.98-3.06,10.11-2.59-1.26-5.72-3.06-5.72-3.06l3.59,5.79s-3.73-2.66-5.85-3.66c-.67,1.73-.27,2.99,1.46,5.26-1.4.86-3.59-2.53-3.99-5.65-.27,3.86-.33,5.79-.33,5.79l-5.39-4.86-.13,3.66s-1-2.93-2.66-4.39c-.07,3.06-.27,3.39-.27,3.39,0,0-2.86-2.73-5.72-3.46,4.92,4.66,17.96,20.16,30.53,13.57-1.93,10.02-9.51,10.71-11.44,9.45.27,1.13.47,3.06.47,3.06,0,0-3.79-1.86-5.02-1.93-.03.86,0,2.79,0,2.79,0,0-1.76-1.93-3.23-1.26-.47,3.26,6.19,6.79,10.91,7.05,0,0-1.4.8-3.39.47.4,2.26.27,2.89.27,2.89,0,0-1.47-1.16-2.96-1.1.7,1.1,3.56,4.43,16.34,5.74-1.33,4.3-15.37,5.77-17.63,5.5.27-2.33-.27-2.73-.27-2.73,0,0-2,3.26-3.73,3.66-.2-2.46.2-5.72-.27-5.65s-.67,3.86-1.33,4.39c-1.4-.33-2.13-4.19-4.19-3.73.07,1.4,1.4,5.92,1.66,7.05-1.53-1.66-4.86-6.25-7.65-5.39.33,3.53,2.66,14.17,2.66,14.17l-16.13.03s3.69-9.81,3.56-19.59c-1.78-.54-1.55,1.83-1.77,4.13-.24,2.44-2.95,3.92-5.14,3.58.62-.64,4.08-4.26,2.71-7.12-4.79,4.39-9.76,10.91-12.48,9.78,0,0,7.38-2.79,4.52-6.52-2.86-3.73-4.72,3.33-9.45,6.19,1.06-3.39,1.33-3.13,1.13-4.66s-3.73,2.59-4.72,2.93.6-2.86.6-2.86l-4.59,2.06,2-3.99-3.39.8-3.46-4.4s10.64,1.47,14.17-2.18c-2.06-.8-3.26-.4-3.26-.4v-1.93s-1.79,1.39-4.06,1.66c1.86-3.26.2-8.58-4.06-4.12.27-2.13-.2-4.66-.93-5.72,14.7,4.59,23.68-5.06,24.28-9.91,0,0-1.73,2.26-2.59,2.2-.86-.07-.73-3.06-5.12,1-.86.27.6-1.53-.07-1.66-1.33,2.06-4.39,1.2-9.58-2.99,0,0,15.63-.27,16.17-5.26-1.66.73-3.13,1.53-6.19,1.4l6.19-1.4c-1.66.73-3.14,1.7-6.19,1.4.33-1.4-2.13-1.4-3.66.86-.73-4.19-5.06.73-7.32.8,1.4-1.28,3.66-2.53,2.93-3.53-2.13.47-3.79.47-5.06,0,0,0,4.39-2.2,4.86-4.12-.86-.4-1.46.67-2.79,0,.47-2.46.86-3.06-.07-3.59-1.26-.27-1.93-.05-3.26,0,.27-1.33.07-2.93-.53-4.46,0,0,7.05,8.65,24.08-6.85-2.93.67-7.85.67-13.11-4.32,3.59,1.06,6.45,2.46,14.24-2-5.06.93-13.7-.33-16.56-5.45,1.64,2.04,3.39,2.86,9.51,1.86-2.33-.67-3.73-1.86-3.73-1.86,0,0,5.19-.33,9.31-3.19-2.99,0-7.18.73-8.91-.47,2.46-.6,5.19-1.26,7.38-3.39-2.79,0-5.59-.6-5.59-.6,0,0,2.53-.2,4.26-1.06-2.66,0-9.78-1.4-11.11-2.99,1.26.47,7.25,1.26,12.24.33,0-1.4-2.86-2.66-2.93-3.39-.8,0-2.13,1.06-2.46,1.73,0-1.73.07-2.2.07-2.2,0,0-2.39.27-2.73.6-.07-1.4-3.92-5.99-4.32-8.51,1.93,1.13,8.12,9.18,15.57,2.86-2.2-2.86-4.79-3.73-5.79-4.06-1.26.73-3.99.53-3.99.53,0,0,2-.6,2-1.8-1-1.13-4.46-4.46-6.72-3.06,0,0,.6-3.13.27-4.66,3.92,4.12,7.12,5.65,13.84,6.19,0,0-3.92-5.59-4.12-11.04,2.06,1.8,7.92,9.25,8.78,4.52-.8-2.66-1.26-3.99-4.66-3.46.13-2.06-.4-2.66-.67-2.99s-1.46.93-4.79.73c1.93-1.86,2.53-4.06.86-9.78,3.33,4.92,5.26,5.92,7.78,6.52.67-.86-.27-2.53-.86-2.26-.47-.93,1.06-2.33-.73-2.33s-2.86.2-2.86.2l-.8-1.8s4.72.53,4.92.67-1.13-5.19-6.39-5.59c0,0,3.53-2.93,7.12,2.33.47-1.93-2.33-9.18-2.99-10.24,1.6.53,1.93,5.19,5.52,2.39-.47-3.53-1.73-6.39-1.73-7.05.73.53,1.66,4.99,3.73,5.26.73-.8-.47-2.33-1.13-2.93.93-1,2.2-.73.27-5.92,1.13.67,1.66,2.13,2.53,1.53.13-3.73.13-15.5.13-15.5,0,0,1.06,13.77,1.26,14.44s1.6.07,1.6.07c0,0-1.06,2.59-1,3.13s1.13.47,1.93.4c-.67,1.4-1.6,5.26-1.26,6.72s4.72-3.86,6.85-4.32c-.42,1.91-2,3.33-1.26,6.45-1.86-.8-3.99.53-5.12,2.39.47,1.26,1.66,3.53,7.45-3.06.73,2.86-2.66,4.26-2.66,4.26,0,0,1.4.27,1.66,1.26-2.33-.07-3.33-.13-3.26.4s1.4,1.8,1.46,2.33-1-.13-1.93.2-.86,1.66-.33,1.93,3.06-.93,4.06-.6c-.13,1.33-4.46,3.46-3.59,8.38,2.13.2,3.39-.07,6.52-6.72,2.2,2.26-.6,4.52-.6,4.52h3.99s-4.12,1.73-4.86,2.66,2.13,2.86,3.33,3.39l-3.33-.2s-3.29,2.54-3.53,3.33c-.4,1.33,1.86,1.86,5.19,1.6-2.06,1.6-2.39,2-2.26,2.53s6.05,1.26,11.91-6.19c1.46,6.98-4.52,11.31-5.72,11.58" style="fill: #b5b7a6;"/>
    <path d="M84.66,68.63c2.04,9.73-6.82,14.85-7.97,16.12,1.2,1.67,6.21.88,11.95-2.45,0,0-2.87,15.14-16.3,16.9,6.3,4.45,7.69,6.58,7.69,6.58,0,0-16.12-3.43-17.88-3.43,1.67,1.76,13.62,19.27,32.6,6.48,0,0-5.56,15.75-9.91,17.51-2.5-3.8-3.8-4.54-3.8-4.54l.46,7.59-3.98-7.5s-.09,7.04,1.57,8.43c-3.15.93-12.13-1.95-18.62-5.46,5.46,4.45,21.86,19.45,41.12,10.47,0,0,1.48,11.11-4.26,14.08-3.61-1.76-7.97-4.26-7.97-4.26l5,8.06s-5.19-3.7-8.15-5.09c-.93,2.41-.37,4.17,2.04,7.32-1.95,1.2-5-3.52-5.56-7.87-.37,5.37-.46,8.06-.46,8.06l-7.5-6.77-.19,5.09s-1.39-4.08-3.7-6.11c-.09,4.26-.37,4.72-.37,4.72,0,0-3.98-3.8-7.97-4.82,6.85,6.48,25.01,28.06,42.51,18.89-2.69,13.95-13.24,14.91-15.93,13.15.37,1.57.65,4.26.65,4.26,0,0-5.28-2.59-6.99-2.69-.05,1.2,0,3.89,0,3.89,0,0-2.45-2.69-4.49-1.76-.65,4.54,8.61,9.45,15.19,9.82,0,0-1.95,1.11-4.72.65.56,3.15.37,4.03.37,4.03,0,0-2.05-1.62-4.13-1.53.98,1.53,4.96,6.17,22.74,7.99-1.85,5.99-21.4,8.03-24.54,7.66.37-3.24-.37-3.8-.37-3.8,0,0-2.78,4.54-5.19,5.09-.28-3.43.28-7.97-.37-7.87s-.93,5.37-1.85,6.11c-1.95-.46-2.96-5.84-5.84-5.19.09,1.95,1.95,8.24,2.32,9.82-2.13-2.32-6.76-8.71-10.65-7.5.46,4.91,3.7,25.29,3.7,25.29l-22.64.47s5.32-19.64,5.13-33.26c-2.47-.75-2.16,2.55-2.47,5.75-.33,3.4-4.11,5.45-7.16,4.99.86-.9,5.68-5.93,3.77-9.91-6.67,6.11-13.59,15.19-17.38,13.62,0,0,10.28-3.89,6.3-9.08-3.98-5.19-6.58,4.63-13.15,8.61,1.48-4.72,1.85-4.35,1.57-6.48-.28-2.13-5.19,3.61-6.58,4.08-1.39.46.83-3.98.83-3.98l-6.39,2.87,2.78-5.56-4.72,1.11-4.82-6.13s14.82,2.05,19.73-3.04c-2.87-1.11-4.54-.56-4.54-.56v-2.69s-2.49,1.94-5.65,2.32c2.59-4.54.28-11.95-5.65-5.74.37-2.96-.28-6.48-1.3-7.97,20.47,6.39,32.97-7.04,33.81-13.8,0,0-2.41,3.15-3.61,3.06s-1.02-4.26-7.13,1.39c-1.2.37.83-2.13-.09-2.32-1.85,2.87-6.11,1.67-13.34-4.17,0,0,21.77-.37,22.51-7.32-2.32,1.02-4.35,2.13-8.61,1.95l8.61-1.95c-2.32,1.02-4.37,2.37-8.61,1.95.46-1.95-2.96-1.95-5.09,1.2-1.02-5.84-7.04,1.02-10.19,1.11,1.95-1.78,5.09-3.52,4.08-4.91-2.96.65-5.28.65-7.04,0,0,0,6.11-3.06,6.76-5.74-1.2-.56-2.04.93-3.89,0,.65-3.43,1.2-4.26-.09-5-1.76-.37-2.69-.07-4.54,0,.37-1.85.09-4.08-.74-6.21,0,0,9.82,12.04,33.53-9.54-4.08.93-10.93.93-18.25-6.02,5,1.48,8.98,3.43,19.82-2.78-7.04,1.3-19.08-.46-23.06-7.59,2.28,2.84,4.72,3.98,13.24,2.59-3.24-.93-5.19-2.59-5.19-2.59,0,0,7.22-.46,12.97-4.45-4.17,0-10,1.02-12.41-.65,3.43-.83,7.22-1.76,10.28-4.72-3.89,0-7.78-.83-7.78-.83,0,0,3.52-.28,5.93-1.48-3.7,0-13.62-1.95-15.47-4.17,1.76.65,10.1,1.76,17.04.46,0-1.95-3.98-3.7-4.08-4.72-1.11,0-2.96,1.48-3.43,2.41,0-2.41.09-3.06.09-3.06,0,0-3.33.37-3.8.83-.09-1.95-5.46-8.34-6.02-11.86,2.69,1.57,11.3,12.78,21.67,3.98-3.06-3.98-6.67-5.19-8.06-5.65-1.76,1.02-5.56.74-5.56.74,0,0,2.78-.83,2.78-2.5-1.39-1.57-6.21-6.21-9.35-4.26,0,0,.83-4.35.37-6.48,5.46,5.74,9.91,7.87,19.27,8.61,0,0-5.46-7.78-5.74-15.38,2.87,2.5,11.02,12.87,12.23,6.3-1.11-3.7-1.76-5.56-6.48-4.82.19-2.87-.56-3.7-.93-4.17s-2.04,1.3-6.67,1.02c2.69-2.59,3.52-5.65,1.2-13.62,4.63,6.85,7.32,8.24,10.84,9.08.93-1.2-.37-3.52-1.2-3.15-.65-1.3,1.48-3.24-1.02-3.24s-3.98.28-3.98.28l-1.11-2.5s6.58.74,6.85.93-1.57-7.22-8.89-7.78c0,0,4.91-4.08,9.91,3.24.65-2.69-3.24-12.78-4.17-14.26,2.22.74,2.69,7.22,7.69,3.33-.65-4.91-2.41-8.89-2.41-9.82,1.02.74,2.32,6.95,5.19,7.32,1.02-1.11-.65-3.24-1.57-4.08,1.3-1.39,3.06-1.02.37-8.24,1.57.93,2.32,2.96,3.52,2.13.19-5.19.19-21.58.19-21.58,0,0,1.48,19.17,1.76,20.1s2.22.09,2.22.09c0,0-1.48,3.61-1.39,4.35s1.57.65,2.69.56c-.93,1.95-2.22,7.32-1.76,9.35s6.58-5.37,9.54-6.02c-.58,2.66-2.78,4.63-1.76,8.98-2.59-1.11-5.56.74-7.13,3.33.65,1.76,2.32,4.91,10.37-4.26,1.02,3.98-3.7,5.93-3.7,5.93,0,0,1.95.37,2.32,1.76-3.24-.09-4.63-.19-4.54.56s1.95,2.5,2.04,3.24-1.39-.19-2.69.28-1.2,2.32-.46,2.69,4.26-1.3,5.65-.83c-.19,1.85-6.21,4.82-5,11.67,2.96.28,4.72-.09,9.08-9.35,3.06,3.15-.83,6.3-.83,6.3h5.56s-5.74,2.41-6.76,3.7,2.96,3.98,4.63,4.72l-4.63-.28s-4.58,3.53-4.91,4.63c-.56,1.85,2.59,2.59,7.22,2.22-2.87,2.22-3.33,2.78-3.15,3.52s8.43,1.76,16.58-8.61c2.04,9.73-6.3,15.75-7.97,16.12" style="fill: #b5b7a6;"/>
  </g>
</svg>