<?xml version="1.0" encoding="UTF-8"?>
<svg id="Layer_1" data-name="Layer 1" xmlns="http://www.w3.org/2000/svg" viewBox="0 0 270.94 100.1">
  <g>
    <g>
      <path d="M55.25,50c.61,2.92-2.05,4.45-2.39,4.84.36.5,1.86.26,3.59-.74,0,0-.86,4.54-4.89,5.07,1.89,1.33,2.31,1.97,2.31,1.97,0,0-4.84-1.03-5.36-1.03.5.53,4.09,5.78,9.78,1.95,0,0-1.67,4.72-2.97,5.25-.75-1.14-1.14-1.36-1.14-1.36l.14,2.28-1.2-2.25s-.03,2.11.47,2.53c-.94.28-3.64-.58-5.59-1.64,1.64,1.33,6.56,5.84,12.34,3.14,0,0,.44,3.33-1.28,4.22-1.08-.53-2.39-1.28-2.39-1.28l1.5,2.42s-1.56-1.11-2.45-1.53c-.28.72-.11,1.25.61,2.2-.58.36-1.5-1.06-1.67-2.36-.11,1.61-.14,2.42-.14,2.42l-2.25-2.03-.06,1.53s-.42-1.22-1.11-1.83c-.03,1.28-.11,1.42-.11,1.42,0,0-1.2-1.14-2.39-1.45,2.06,1.95,7.5,8.42,12.76,5.67-.81,4.19-3.97,4.47-4.78,3.95.11.47.19,1.28.19,1.28,0,0-1.58-.78-2.1-.81-.01.36,0,1.17,0,1.17,0,0-.74-.81-1.35-.53-.19,1.36,2.58,2.83,4.56,2.95,0,0-.58.33-1.42.19.17.94.11,1.21.11,1.21,0,0-.61-.49-1.24-.46.29.46,1.49,1.85,6.82,2.4-.56,1.8-6.42,2.41-7.36,2.3.11-.97-.11-1.14-.11-1.14,0,0-.83,1.36-1.56,1.53-.08-1.03.08-2.39-.11-2.36s-.28,1.61-.56,1.83c-.58-.14-.89-1.75-1.75-1.56.03.58.58,2.47.69,2.95-.64-.69-2.03-2.61-3.2-2.25.14,1.47,1.11,7.59,1.11,7.59l-6.74.47s1.54-6.23,1.49-10.31c-.74-.22-.65.76-.74,1.73-.1,1.02-1.23,1.64-2.15,1.5.26-.27,1.7-1.78,1.13-2.97-2,1.83-4.08,4.56-5.22,4.09,0,0,3.08-1.17,1.89-2.72s-1.97,1.39-3.95,2.58c.44-1.42.56-1.31.47-1.95s-1.56,1.08-1.97,1.22.25-1.2.25-1.2l-1.92.86.83-1.67-1.42.33-1.45-1.84s4.45.62,5.92-.91c-.86-.33-1.36-.17-1.36-.17v-.81s-.75.58-1.7.69c.78-1.36.08-3.59-1.7-1.72.11-.89-.08-1.95-.39-2.39,6.14,1.92,9.89-2.11,10.14-4.14,0,0-.72.94-1.08.92s-.31-1.28-2.14.42c-.36.11.25-.64-.03-.69-.56.86-1.83.5-4-1.25,0,0,6.53-.11,6.75-2.2-.69.31-1.31.64-2.58.58l2.58-.58c-.69.31-1.31.71-2.58.58.14-.58-.89-.58-1.53.36-.31-1.75-2.11.31-3.06.33.58-.53,1.53-1.06,1.22-1.47-.89.19-1.58.19-2.11,0,0,0,1.83-.92,2.03-1.72-.36-.17-.61.28-1.17,0,.19-1.03.36-1.28-.03-1.5-.53-.11-.81-.02-1.36,0,.11-.56.03-1.22-.22-1.86,0,0,2.95,3.61,10.06-2.86-1.22.28-3.28.28-5.47-1.81,1.5.44,2.7,1.03,5.95-.83-2.11.39-5.72-.14-6.92-2.28.68.85,1.42,1.2,3.97.78-.97-.28-1.56-.78-1.56-.78,0,0,2.17-.14,3.89-1.33-1.25,0-3,.31-3.72-.19,1.03-.25,2.17-.53,3.08-1.42-1.17,0-2.33-.25-2.33-.25,0,0,1.06-.08,1.78-.44-1.11,0-4.09-.58-4.64-1.25.53.19,3.03.53,5.11.14,0-.58-1.2-1.11-1.22-1.42-.33,0-.89.44-1.03.72,0-.72.03-.92.03-.92,0,0-1,.11-1.14.25-.03-.58-1.64-2.5-1.81-3.56.81.47,3.39,3.84,6.5,1.2-.92-1.2-2-1.56-2.42-1.7-.53.31-1.67.22-1.67.22,0,0,.83-.25.83-.75-.42-.47-1.86-1.86-2.81-1.28,0,0,.25-1.31.11-1.95,1.64,1.72,2.97,2.36,5.78,2.58,0,0-1.64-2.33-1.72-4.61.86.75,3.31,3.86,3.67,1.89-.33-1.11-.53-1.67-1.95-1.45.06-.86-.17-1.11-.28-1.25s-.61.39-2,.31c.81-.78,1.06-1.7.36-4.09,1.39,2.06,2.2,2.47,3.25,2.72.28-.36-.11-1.06-.36-.94-.19-.39.44-.97-.31-.97s-1.2.08-1.2.08l-.33-.75s1.97.22,2.06.28-.47-2.17-2.67-2.33c0,0,1.47-1.22,2.97.97.19-.81-.97-3.84-1.25-4.28.67.22.81,2.17,2.31,1-.19-1.47-.72-2.67-.72-2.95.31.22.69,2.08,1.56,2.2.31-.33-.19-.97-.47-1.22.39-.42.92-.31.11-2.47.47.28.69.89,1.06.64.06-1.56.06-6.48.06-6.48,0,0,.44,5.75.53,6.03s.67.03.67.03c0,0-.44,1.08-.42,1.31s.47.19.81.17c-.28.58-.67,2.2-.53,2.81s1.97-1.61,2.86-1.81c-.17.8-.83,1.39-.53,2.7-.78-.33-1.67.22-2.14,1,.19.53.69,1.47,3.11-1.28.31,1.2-1.11,1.78-1.11,1.78,0,0,.58.11.69.53-.97-.03-1.39-.06-1.36.17s.58.75.61.97-.42-.06-.81.08-.36.69-.14.81,1.28-.39,1.7-.25c-.06.56-1.86,1.45-1.5,3.5.89.08,1.42-.03,2.72-2.81.92.94-.25,1.89-.25,1.89h1.67s-1.72.72-2.03,1.11.89,1.2,1.39,1.42l-1.39-.08s-1.37,1.06-1.47,1.39c-.17.56.78.78,2.17.67-.86.67-1,.83-.94,1.06s2.53.53,4.97-2.58c.61,2.92-1.89,4.72-2.39,4.84" style="fill: #474c21;"/>
      <path d="M36.5,28.67c.85,4.06-2.85,6.2-3.33,6.73.5.7,2.59.37,4.99-1.03,0,0-1.2,6.33-6.81,7.06,2.63,1.86,3.21,2.75,3.21,2.75,0,0-6.73-1.43-7.47-1.43.7.74,5.69,8.05,13.62,2.71,0,0-2.32,6.58-4.14,7.31-1.04-1.59-1.59-1.9-1.59-1.9l.19,3.17-1.66-3.13s-.04,2.94.66,3.52c-1.32.39-5.07-.81-7.78-2.28,2.28,1.86,9.13,8.13,17.18,4.37,0,0,.62,4.64-1.78,5.88-1.51-.74-3.33-1.78-3.33-1.78l2.09,3.37s-2.17-1.55-3.41-2.13c-.39,1.01-.15,1.74.85,3.06-.81.5-2.09-1.47-2.32-3.29-.15,2.24-.19,3.37-.19,3.37l-3.13-2.83-.08,2.13s-.58-1.7-1.55-2.55c-.04,1.78-.15,1.97-.15,1.97,0,0-1.66-1.59-3.33-2.01,2.86,2.71,10.45,11.72,17.76,7.89-1.12,5.83-5.53,6.23-6.66,5.49.15.66.27,1.78.27,1.78,0,0-2.21-1.08-2.92-1.12-.02.5,0,1.63,0,1.63,0,0-1.03-1.12-1.88-.74-.27,1.9,3.6,3.95,6.35,4.1,0,0-.81.46-1.97.27.23,1.32.15,1.68.15,1.68,0,0-.86-.68-1.72-.64.41.64,2.07,2.58,9.5,3.34-.77,2.5-8.94,3.35-10.25,3.2.15-1.35-.15-1.59-.15-1.59,0,0-1.16,1.9-2.17,2.13-.12-1.43.12-3.33-.15-3.29s-.39,2.24-.77,2.55c-.81-.19-1.24-2.44-2.44-2.17.04.81.81,3.44.97,4.1-.89-.97-2.82-3.64-4.45-3.13.19,2.05,1.55,10.56,1.55,10.56l-9.38.66s2.15-8.67,2.07-14.36c-1.03-.31-.9,1.06-1.03,2.4-.14,1.42-1.72,2.28-2.99,2.08.36-.37,2.37-2.48,1.57-4.14-2.79,2.55-5.68,6.35-7.26,5.69,0,0,4.3-1.63,2.63-3.79-1.66-2.17-2.75,1.93-5.49,3.6.62-1.97.77-1.82.66-2.71s-2.17,1.51-2.75,1.7.35-1.66.35-1.66l-2.67,1.2,1.16-2.32-1.97.46-2.01-2.56s6.19.86,8.24-1.27c-1.2-.46-1.9-.23-1.9-.23v-1.12s-1.04.81-2.36.97c1.08-1.9.12-4.99-2.36-2.4.15-1.24-.12-2.71-.54-3.33,8.55,2.67,13.78-2.94,14.12-5.77,0,0-1.01,1.32-1.51,1.28s-.43-1.78-2.98.58c-.5.15.35-.89-.04-.97-.77,1.2-2.55.7-5.57-1.74,0,0,9.09-.15,9.4-3.06-.97.43-1.82.89-3.6.81l3.6-.81c-.97.43-1.83.99-3.6.81.19-.81-1.24-.81-2.13.5-.43-2.44-2.94.43-4.26.46.81-.74,2.13-1.47,1.7-2.05-1.24.27-2.21.27-2.94,0,0,0,2.55-1.28,2.82-2.4-.5-.23-.85.39-1.63,0,.27-1.43.5-1.78-.04-2.09-.74-.15-1.12-.03-1.9,0,.15-.77.04-1.7-.31-2.59,0,0,4.1,5.03,14.01-3.99-1.7.39-4.57.39-7.62-2.52,2.09.62,3.75,1.43,8.28-1.16-2.94.54-7.97-.19-9.63-3.17.95,1.19,1.97,1.66,5.53,1.08-1.35-.39-2.17-1.08-2.17-1.08,0,0,3.02-.19,5.42-1.86-1.74,0-4.18.43-5.18-.27,1.43-.35,3.02-.74,4.3-1.97-1.63,0-3.25-.35-3.25-.35,0,0,1.47-.12,2.48-.62-1.55,0-5.69-.81-6.46-1.74.74.27,4.22.74,7.12.19,0-.81-1.66-1.55-1.7-1.97-.46,0-1.24.62-1.43,1.01,0-1.01.04-1.28.04-1.28,0,0-1.39.15-1.59.35-.04-.81-2.28-3.48-2.52-4.95,1.12.66,4.72,5.34,9.05,1.66-1.28-1.66-2.79-2.17-3.37-2.36-.74.43-2.32.31-2.32.31,0,0,1.16-.35,1.16-1.04-.58-.66-2.59-2.59-3.91-1.78,0,0,.35-1.82.15-2.71,2.28,2.4,4.14,3.29,8.05,3.6,0,0-2.28-3.25-2.4-6.42,1.2,1.04,4.6,5.38,5.11,2.63-.46-1.55-.74-2.32-2.71-2.01.08-1.2-.23-1.55-.39-1.74s-.85.54-2.79.43c1.12-1.08,1.47-2.36.5-5.69,1.93,2.86,3.06,3.44,4.53,3.79.39-.5-.15-1.47-.5-1.32-.27-.54.62-1.35-.43-1.35s-1.66.12-1.66.12l-.46-1.04s2.75.31,2.86.39-.66-3.02-3.71-3.25c0,0,2.05-1.7,4.14,1.35.27-1.12-1.35-5.34-1.74-5.96.93.31,1.12,3.02,3.21,1.39-.27-2.05-1.01-3.71-1.01-4.1.43.31.97,2.9,2.17,3.06.43-.46-.27-1.35-.66-1.7.54-.58,1.28-.43.15-3.44.66.39.97,1.24,1.47.89.08-2.17.08-9.02.08-9.02,0,0,.62,8.01.74,8.4s.93.04.93.04c0,0-.62,1.51-.58,1.82s.66.27,1.12.23c-.39.81-.93,3.06-.74,3.91s2.75-2.24,3.99-2.52c-.24,1.11-1.16,1.93-.74,3.75-1.08-.46-2.32.31-2.98,1.39.27.74.97,2.05,4.33-1.78.43,1.66-1.55,2.48-1.55,2.48,0,0,.81.15.97.74-1.35-.04-1.93-.08-1.9.23s.81,1.04.85,1.35-.58-.08-1.12.12-.5.97-.19,1.12,1.78-.54,2.36-.35c-.08.77-2.59,2.01-2.09,4.88,1.24.12,1.97-.04,3.79-3.91,1.28,1.32-.35,2.63-.35,2.63h2.32s-2.4,1.01-2.82,1.55,1.24,1.66,1.93,1.97l-1.93-.12s-1.91,1.48-2.05,1.93c-.23.77,1.08,1.08,3.02.93-1.2.93-1.39,1.16-1.32,1.47s3.52.74,6.93-3.6c.85,4.06-2.63,6.58-3.33,6.73" style="fill: #474c21;"/>
    </g>
    <g>
      <path d="M54.11,50c.61,2.92-2.05,4.45-2.39,4.84.36.5,1.86.26,3.59-.74,0,0-.86,4.54-4.89,5.07,1.89,1.33,2.31,1.97,2.31,1.97,0,0-4.84-1.03-5.36-1.03.5.53,4.09,5.78,9.78,1.95,0,0-1.67,4.72-2.97,5.25-.75-1.14-1.14-1.36-1.14-1.36l.14,2.28-1.2-2.25s-.03,2.11.47,2.53c-.94.28-3.64-.58-5.59-1.64,1.64,1.33,6.56,5.84,12.34,3.14,0,0,.44,3.33-1.28,4.22-1.08-.53-2.39-1.28-2.39-1.28l1.5,2.42s-1.56-1.11-2.45-1.53c-.28.72-.11,1.25.61,2.2-.58.36-1.5-1.06-1.67-2.36-.11,1.61-.14,2.42-.14,2.42l-2.25-2.03-.06,1.53s-.42-1.22-1.11-1.83c-.03,1.28-.11,1.42-.11,1.42,0,0-1.2-1.14-2.39-1.45,2.06,1.95,7.5,8.42,12.76,5.67-.81,4.19-3.97,4.47-4.78,3.95.11.47.19,1.28.19,1.28,0,0-1.58-.78-2.1-.81-.01.36,0,1.17,0,1.17,0,0-.74-.81-1.35-.53-.19,1.36,2.58,2.83,4.56,2.95,0,0-.58.33-1.42.19.17.94.11,1.21.11,1.21,0,0-.61-.49-1.24-.46.29.46,1.49,1.85,6.82,2.4-.56,1.8-6.42,2.41-7.36,2.3.11-.97-.11-1.14-.11-1.14,0,0-.83,1.36-1.56,1.53-.08-1.03.08-2.39-.11-2.36s-.28,1.61-.56,1.83c-.58-.14-.89-1.75-1.75-1.56.03.58.58,2.47.69,2.95-.64-.69-2.03-2.61-3.2-2.25.14,1.47,1.11,7.59,1.11,7.59l-6.74.47s1.54-6.23,1.49-10.31c-.74-.22-.65.76-.74,1.73-.1,1.02-1.23,1.64-2.15,1.5.26-.27,1.7-1.78,1.13-2.97-2,1.83-4.08,4.56-5.22,4.09,0,0,3.08-1.17,1.89-2.72s-1.97,1.39-3.95,2.58c.44-1.42.56-1.31.47-1.95s-1.56,1.08-1.97,1.22.25-1.2.25-1.2l-1.92.86.83-1.67-1.42.33-1.45-1.84s4.45.62,5.92-.91c-.86-.33-1.36-.17-1.36-.17v-.81s-.75.58-1.7.69c.78-1.36.08-3.59-1.7-1.72.11-.89-.08-1.95-.39-2.39,6.14,1.92,9.89-2.11,10.14-4.14,0,0-.72.94-1.08.92s-.31-1.28-2.14.42c-.36.11.25-.64-.03-.69-.56.86-1.83.5-4-1.25,0,0,6.53-.11,6.75-2.2-.69.31-1.31.64-2.58.58l2.58-.58c-.69.31-1.31.71-2.58.58.14-.58-.89-.58-1.53.36-.31-1.75-2.11.31-3.06.33.58-.53,1.53-1.06,1.22-1.47-.89.19-1.58.19-2.11,0,0,0,1.83-.92,2.03-1.72-.36-.17-.61.28-1.17,0,.19-1.03.36-1.28-.03-1.5-.53-.11-.81-.02-1.36,0,.11-.56.03-1.22-.22-1.86,0,0,2.95,3.61,10.06-2.86-1.22.28-3.28.28-5.47-1.81,1.5.44,2.7,1.03,5.95-.83-2.11.39-5.72-.14-6.92-2.28.68.85,1.42,1.2,3.97.78-.97-.28-1.56-.78-1.56-.78,0,0,2.17-.14,3.89-1.33-1.25,0-3,.31-3.72-.19,1.03-.25,2.17-.53,3.08-1.42-1.17,0-2.33-.25-2.33-.25,0,0,1.06-.08,1.78-.44-1.11,0-4.09-.58-4.64-1.25.53.19,3.03.53,5.11.14,0-.58-1.2-1.11-1.22-1.42-.33,0-.89.44-1.03.72,0-.72.03-.92.03-.92,0,0-1,.11-1.14.25-.03-.58-1.64-2.5-1.81-3.56.81.47,3.39,3.84,6.5,1.2-.92-1.2-2-1.56-2.42-1.7-.53.31-1.67.22-1.67.22,0,0,.83-.25.83-.75-.42-.47-1.86-1.86-2.81-1.28,0,0,.25-1.31.11-1.95,1.64,1.72,2.97,2.36,5.78,2.58,0,0-1.64-2.33-1.72-4.61.86.75,3.31,3.86,3.67,1.89-.33-1.11-.53-1.67-1.95-1.45.06-.86-.17-1.11-.28-1.25s-.61.39-2,.31c.81-.78,1.06-1.7.36-4.09,1.39,2.06,2.2,2.47,3.25,2.72.28-.36-.11-1.06-.36-.94-.19-.39.44-.97-.31-.97s-1.2.08-1.2.08l-.33-.75s1.97.22,2.06.28-.47-2.17-2.67-2.33c0,0,1.47-1.22,2.97.97.19-.81-.97-3.84-1.25-4.28.67.22.81,2.17,2.31,1-.19-1.47-.72-2.67-.72-2.95.31.22.69,2.08,1.56,2.2.31-.33-.19-.97-.47-1.22.39-.42.92-.31.11-2.47.47.28.69.89,1.06.64.06-1.56.06-6.48.06-6.48,0,0,.44,5.75.53,6.03s.67.03.67.03c0,0-.44,1.08-.42,1.31s.47.19.81.17c-.28.58-.67,2.2-.53,2.81s1.97-1.61,2.86-1.81c-.17.8-.83,1.39-.53,2.7-.78-.33-1.67.22-2.14,1,.19.53.69,1.47,3.11-1.28.31,1.2-1.11,1.78-1.11,1.78,0,0,.58.11.69.53-.97-.03-1.39-.06-1.36.17s.58.75.61.97-.42-.06-.81.08-.36.69-.14.81,1.28-.39,1.7-.25c-.06.56-1.86,1.45-1.5,3.5.89.08,1.42-.03,2.72-2.81.92.94-.25,1.89-.25,1.89h1.67s-1.72.72-2.03,1.11.89,1.2,1.39,1.42l-1.39-.08s-1.37,1.06-1.47,1.39c-.17.56.78.78,2.17.67-.86.67-1,.83-.94,1.06s2.53.53,4.97-2.58c.61,2.92-1.89,4.72-2.39,4.84" style="fill: #b5b7a6;"/>
      <path d="M35.37,28.67c.85,4.06-2.85,6.2-3.33,6.73.5.7,2.59.37,4.99-1.03,0,0-1.2,6.33-6.81,7.06,2.63,1.86,3.21,2.75,3.21,2.75,0,0-6.73-1.43-7.47-1.43.7.74,5.69,8.05,13.62,2.71,0,0-2.32,6.58-4.14,7.31-1.04-1.59-1.59-1.9-1.59-1.9l.19,3.17-1.66-3.13s-.04,2.94.66,3.52c-1.32.39-5.07-.81-7.78-2.28,2.28,1.86,9.13,8.13,17.18,4.37,0,0,.62,4.64-1.78,5.88-1.51-.74-3.33-1.78-3.33-1.78l2.09,3.37s-2.17-1.55-3.41-2.13c-.39,1.01-.15,1.74.85,3.06-.81.5-2.09-1.47-2.32-3.29-.15,2.24-.19,3.37-.19,3.37l-3.13-2.83-.08,2.13s-.58-1.7-1.55-2.55c-.04,1.78-.15,1.97-.15,1.97,0,0-1.66-1.59-3.33-2.01,2.86,2.71,10.45,11.72,17.76,7.89-1.12,5.83-5.53,6.23-6.66,5.49.15.66.27,1.78.27,1.78,0,0-2.21-1.08-2.92-1.12-.02.5,0,1.63,0,1.63,0,0-1.03-1.12-1.88-.74-.27,1.9,3.6,3.95,6.35,4.1,0,0-.81.46-1.97.27.23,1.32.15,1.68.15,1.68,0,0-.86-.68-1.72-.64.41.64,2.07,2.58,9.5,3.34-.77,2.5-8.94,3.35-10.25,3.2.15-1.35-.15-1.59-.15-1.59,0,0-1.16,1.9-2.17,2.13-.12-1.43.12-3.33-.15-3.29s-.39,2.24-.77,2.55c-.81-.19-1.24-2.44-2.44-2.17.04.81.81,3.44.97,4.1-.89-.97-2.82-3.64-4.45-3.13.19,2.05,1.55,10.56,1.55,10.56l-9.38.66s2.15-8.67,2.07-14.36c-1.03-.31-.9,1.06-1.03,2.4-.14,1.42-1.72,2.28-2.99,2.08.36-.37,2.37-2.48,1.57-4.14-2.79,2.55-5.68,6.35-7.26,5.69,0,0,4.3-1.63,2.63-3.79-1.66-2.17-2.75,1.93-5.49,3.6.62-1.97.77-1.82.66-2.71s-2.17,1.51-2.75,1.7.35-1.66.35-1.66l-2.67,1.2,1.16-2.32-1.97.46-2.01-2.56s6.19.86,8.24-1.27c-1.2-.46-1.9-.23-1.9-.23v-1.12s-1.04.81-2.36.97c1.08-1.9.12-4.99-2.36-2.4.15-1.24-.12-2.71-.54-3.33,8.55,2.67,13.78-2.94,14.12-5.77,0,0-1.01,1.32-1.51,1.28s-.43-1.78-2.98.58c-.5.15.35-.89-.04-.97-.77,1.2-2.55.7-5.57-1.74,0,0,9.09-.15,9.4-3.06-.97.43-1.82.89-3.6.81l3.6-.81c-.97.43-1.83.99-3.6.81.19-.81-1.24-.81-2.13.5-.43-2.44-2.94.43-4.26.46.81-.74,2.13-1.47,1.7-2.05-1.24.27-2.21.27-2.94,0,0,0,2.55-1.28,2.82-2.4-.5-.23-.85.39-1.63,0,.27-1.43.5-1.78-.04-2.09-.74-.15-1.12-.03-1.9,0,.15-.77.04-1.7-.31-2.59,0,0,4.1,5.03,14.01-3.99-1.7.39-4.57.39-7.62-2.52,2.09.62,3.75,1.43,8.28-1.16-2.94.54-7.97-.19-9.63-3.17.95,1.19,1.97,1.66,5.53,1.08-1.35-.39-2.17-1.08-2.17-1.08,0,0,3.02-.19,5.42-1.86-1.74,0-4.18.43-5.18-.27,1.43-.35,3.02-.74,4.3-1.97-1.63,0-3.25-.35-3.25-.35,0,0,1.47-.12,2.48-.62-1.55,0-5.69-.81-6.46-1.74.74.27,4.22.74,7.12.19,0-.81-1.66-1.55-1.7-1.97-.46,0-1.24.62-1.43,1.01,0-1.01.04-1.28.04-1.28,0,0-1.39.15-1.59.35-.04-.81-2.28-3.48-2.52-4.95,1.12.66,4.72,5.34,9.05,1.66-1.28-1.66-2.79-2.17-3.37-2.36-.74.43-2.32.31-2.32.31,0,0,1.16-.35,1.16-1.04-.58-.66-2.59-2.59-3.91-1.78,0,0,.35-1.82.15-2.71,2.28,2.4,4.14,3.29,8.05,3.6,0,0-2.28-3.25-2.4-6.42,1.2,1.04,4.6,5.38,5.11,2.63-.46-1.55-.74-2.32-2.71-2.01.08-1.2-.23-1.55-.39-1.74s-.85.54-2.79.43c1.12-1.08,1.47-2.36.5-5.69,1.93,2.86,3.06,3.44,4.53,3.79.39-.5-.15-1.47-.5-1.32-.27-.54.62-1.35-.43-1.35s-1.66.12-1.66.12l-.46-1.04s2.75.31,2.86.39-.66-3.02-3.71-3.25c0,0,2.05-1.7,4.14,1.35.27-1.12-1.35-5.34-1.74-5.96.93.31,1.12,3.02,3.21,1.39-.27-2.05-1.01-3.71-1.01-4.1.43.31.97,2.9,2.17,3.06.43-.46-.27-1.35-.66-1.7.54-.58,1.28-.43.15-3.44.66.39.97,1.24,1.47.89.08-2.17.08-9.02.08-9.02,0,0,.62,8.01.74,8.4s.93.04.93.04c0,0-.62,1.51-.58,1.82s.66.27,1.12.23c-.39.81-.93,3.06-.74,3.91s2.75-2.24,3.99-2.52c-.24,1.11-1.16,1.93-.74,3.75-1.08-.46-2.32.31-2.98,1.39.27.74.97,2.05,4.33-1.78.43,1.66-1.55,2.48-1.55,2.48,0,0,.81.15.97.74-1.35-.04-1.93-.08-1.9.23s.81,1.04.85,1.35-.58-.08-1.12.12-.5.97-.19,1.12,1.78-.54,2.36-.35c-.08.77-2.59,2.01-2.09,4.88,1.24.12,1.97-.04,3.79-3.91,1.28,1.32-.35,2.63-.35,2.63h2.32s-2.4,1.01-2.82,1.55,1.24,1.66,1.93,1.97l-1.93-.12s-1.91,1.48-2.05,1.93c-.23.77,1.08,1.08,3.02.93-1.2.93-1.39,1.16-1.32,1.47s3.52.74,6.93-3.6c.85,4.06-2.63,6.58-3.33,6.73" style="fill: #b5b7a6;"/>
    </g>
  </g>
  <text transform="translate(108.95 79.86)" style="fill: #474d22; font-family: ModerataSerif-BoldItalic, ModerataSerif; font-size: 28.66px; font-style: italic; font-weight: 700;"><tspan x="0" y="0" style="letter-spacing: -.01em;">o</tspan><tspan x="13.73" y="0">f </tspan><tspan x="34.17" y="0" style="letter-spacing: -.02em;">t</tspan><tspan x="42.28" y="0" style="letter-spacing: 0em;">h</tspan><tspan x="56.09" y="0">e </tspan><tspan x="75.44" y="0" style="letter-spacing: -.02em;">w</tspan><tspan x="95.27" y="0">o</tspan><tspan x="109.4" y="0" style="letter-spacing: .01em;">o</tspan><tspan x="123.88" y="0">ds</tspan></text>
  <text transform="translate(67.4 55.65) rotate(.27)" style="font-family: ProximaNova-Extrabld, &apos;Proxima Nova&apos;; font-size: 54.43px;"><tspan x="0" y="0" style="fill: #474d22;">our</tspan><tspan x="83.98" y="0" style="fill: #231f20; letter-spacing: 0em;">neck</tspan></text>
</svg>